<?xml version="1.0" encoding="UTF-8" standalone="no"?>
<!-- Created with Inkscape (http://www.inkscape.org/) -->

<svg
   xmlns:dc="http://purl.org/dc/elements/1.1/"
   xmlns:cc="http://creativecommons.org/ns#"
   xmlns:rdf="http://www.w3.org/1999/02/22-rdf-syntax-ns#"
   xmlns:svg="http://www.w3.org/2000/svg"
   xmlns="http://www.w3.org/2000/svg"
   xmlns:sodipodi="http://sodipodi.sourceforge.net/DTD/sodipodi-0.dtd"
   xmlns:inkscape="http://www.inkscape.org/namespaces/inkscape"
   version="1.1"
   id="svg3821"
   width="108"
   height="108"
   viewBox="0 0 108 108"
   sodipodi:docname="icon_foreground.svg"
   inkscape:version="0.92.4 (5da689c313, 2019-01-14)">
  <metadata
     id="metadata3827">
    <rdf:RDF>
      <cc:Work
         rdf:about="">
        <dc:format>image/svg+xml</dc:format>
        <dc:type
           rdf:resource="http://purl.org/dc/dcmitype/StillImage" />
        <dc:title />
      </cc:Work>
    </rdf:RDF>
  </metadata>
  <defs
     id="defs3825" />
  <sodipodi:namedview
     pagecolor="#ffffff"
     bordercolor="#666666"
     borderopacity="1"
     objecttolerance="10"
     gridtolerance="10"
     guidetolerance="10"
     inkscape:pageopacity="0"
     inkscape:pageshadow="2"
     inkscape:window-width="2560"
     inkscape:window-height="1387"
     id="namedview3823"
     showgrid="true"
     inkscape:pagecheckerboard="true"
     inkscape:zoom="9.1349993"
     inkscape:cx="81.392795"
     inkscape:cy="53.803973"
     inkscape:window-x="-8"
     inkscape:window-y="22"
     inkscape:window-maximized="1"
     inkscape:current-layer="svg3821"
     showguides="false">
    <inkscape:grid
       type="xygrid"
       id="grid833" />
  </sodipodi:namedview>
  <g
     id="g4672"
     transform="matrix(0.07834771,0,0,0.07849413,13.839046,10.78983)">
    <g
       id="g3831">
      <path
         inkscape:connector-curvature="0"
         id="path3833"
         d="m 296.03233,845.94845 c -26.25915,-7.36537 -44.03232,-32.10109 -44.03232,-61.28176 0,-25.66941 12.91042,-47.74733 33.97196,-58.09495 9.03139,-4.43714 9.77712,-4.57172 25.33333,-4.57172 15.43038,0 16.36398,0.16428 25.03687,4.40566 22.93295,11.21508 36.61009,37.81937 33.65049,65.4557 -2.42602,22.65393 -14.50768,40.0837 -34.86478,50.29821 -8.15334,4.09106 -11.15506,4.86253 -20.66667,5.31148 -7.4244,0.35042 -13.55772,-0.15631 -18.42888,-1.52262 z M 420.66668,813.2988 c -18.40761,-1.8004 -22.74924,-2.98244 -22.23393,-6.05331 0.46129,-2.74896 15.00898,-57.12893 15.35957,-57.41484 0.11427,-0.0932 5.60769,0.94677 12.20769,2.31093 32.10808,6.63647 45.605,-0.11986 52.28212,-26.1713 2.18125,-8.51036 2.35647,-16.1812 2.05525,-89.97026 -0.23127,-56.64914 -1.17389,-99.63942 -3.16595,-144.38962 -1.56015,-35.04761 -2.4459,-64.11369 -1.96831,-64.59128 1.06087,-1.06085 67.91554,-13.63681 68.66084,-12.91571 0.29184,0.28236 -0.87977,31.08467 -2.60358,68.44958 l -3.1342,67.9362 3.12549,64.20586 c 3.2986,67.76205 3.13888,81.54032 -1.17348,101.23123 -9.91663,45.28085 -40.51287,84.20519 -74.48054,94.75365 -10.11513,3.1412 -28.58424,4.2177 -44.93097,2.61887 z m 190.71691,-23.5452 c 0.43251,-10.86447 2.20924,-70.15358 3.94828,-131.75358 3.3045,-117.05151 3.21999,-127.54303 -1.40696,-174.66667 -1.15206,-11.73334 -3.22606,-29.11374 -4.60889,-38.62311 -1.38284,-9.50936 -2.27403,-17.52999 -1.98043,-17.82359 1.35212,-1.3521 61.25936,-13.48465 62.11172,-12.57898 0.53092,0.56412 1.9366,11.52568 3.12372,24.35901 2.5269,27.31692 2.89068,29.33333 5.29224,29.33333 0.99686,0 4.38288,-3.33174 7.52451,-7.40388 12.7554,-16.53336 37.38654,-36.11828 52.56822,-41.79846 34.34301,-12.84938 73.61251,8.34126 90.59503,48.88693 6.88848,16.44623 9.00846,28.4121 9.74165,54.98478 0.78144,28.32148 -1.10983,45.24068 -7.66781,68.59572 -11.50248,40.96401 -36.97763,72.91289 -71.29151,89.40807 -17.59986,8.4605 -27.72122,10.42452 -54.38192,10.55264 -18.33877,0.0881 -22.61901,0.46884 -23.69438,2.10754 -0.76177,1.16085 -1.01689,7.31467 -0.60803,14.66667 0.38743,6.96667 0.8499,29.76359 1.02771,50.65983 l 0.32328,37.99315 -30,5.54168 c -16.5,3.04792 -32.56564,5.94012 -35.70141,6.42709 l -5.70142,0.8854 z M 745.0181,631.81237 c 17.79087,-5.76979 30.20582,-22.99688 34.45662,-47.81235 4.25592,-24.84542 0.73289,-61.24514 -7.48727,-77.35799 -4.33807,-8.50332 -12.61937,-16.67116 -20.35136,-20.07252 -13.44581,-5.91491 -37.3458,-3.26239 -61.60648,6.83736 -6.13828,2.55537 -11.01636,5.52632 -12.30631,7.49503 -1.90181,2.90252 -2.03884,8.3529 -1.24481,49.51317 1.13805,58.99411 2.08336,75.9563 4.3599,78.23286 3.13739,3.13737 36.02382,7.5382 48.49497,6.48953 4.03333,-0.33915 11.09146,-1.83544 15.68474,-3.32509 z m -495.68092,59.18765 c 0.003,-0.55 1.4934,-30.47591 3.31397,-66.50201 L 255.9613,558.996 252.65458,443.83133 c -1.81869,-63.34056 -3.30999,-116.40607 -3.31399,-117.92336 -0.007,-2.56693 2.5425,-3.20697 36.67397,-9.20767 20.17466,-3.54694 36.99368,-6.13652 37.37557,-5.75461 0.38191,0.38191 -1.03179,55.22536 -3.14155,121.87435 -3.53374,111.63436 -3.70229,124.01578 -2.13966,157.17998 0.93293,19.8 1.74008,38.43532 1.79366,41.41183 0.19574,10.87284 -3.43658,10.51316 57.75902,5.71928 29.87873,-2.34062 54.69351,-3.88712 55.14393,-3.4367 0.79444,0.79444 -2.88992,49.27215 -4.20328,55.30559 l -0.65304,3 h -89.30793 c -49.11936,0 -89.30621,-0.45 -89.3041,-1 z m 244.8496,-322.5093 c -8.95226,-2.74956 -18.18041,-12.16014 -21.22426,-21.64382 -3.17065,-9.87874 -2.97617,-23.59518 0.46496,-32.79242 3.45421,-9.23223 13.98386,-20.98658 23.11684,-25.80558 6.11944,-3.22892 8.16982,-3.58222 20.78903,-3.58222 12.90417,0 14.49296,0.28977 20.29789,3.7021 8.13747,4.78347 12.8408,12.75247 14.72996,24.95743 2.69534,17.41335 -2.32069,32.88016 -14.55757,44.88799 -11.74764,11.52772 -27.47693,15.23369 -43.61685,10.27652 z"
         style="fill:#ffffff;stroke-width:1.33333337" />
    </g>
    <path
       inkscape:connector-curvature="0"
       id="path3847"
       d="m 293.09545,844.35208 c -18.09252,-6.69096 -31.61659,-21.01943 -37.47286,-39.70171 -2.91822,-9.3095 -3.4831,-26.73665 -1.18301,-36.4968 3.97461,-16.86577 16.84259,-33.48814 31.66956,-40.90954 6.95478,-3.4811 8.46971,-3.7413 24.01338,-4.12443 l 16.59029,-0.40894 8.96221,4.42937 c 15.79387,7.80575 27.81008,23.43669 32.14169,41.81059 7.00867,29.72946 -6.13337,58.67349 -32.84194,72.33108 -8.70726,4.45252 -9.99329,4.74873 -22.24578,5.12386 -10.59365,0.32435 -14.23314,-0.0564 -19.63354,-2.05348 z"
       style="fill:#ffffff;stroke-width:1.23850131" />
    <ellipse
       ry="65.571983"
       rx="61.302689"
       cy="784.34601"
       cx="312.20584"
       id="path3857"
       style="fill:#ff0000" />
  </g>
</svg>
