<?xml version="1.0" standalone="yes"?>
<svg xmlns="http://www.w3.org/2000/svg" width="800" height="800">
<path style="fill:#2196f3; stroke:none;" d="M137 16.4244C122.728 18.3039 109.35 20.7184 96 26.4275C62.5598 40.7285 36.1226 70.098 25.7207 105C19.1941 126.899 20 149.417 20 172L20 259L20 560L20 625C20 661.522 21.2697 696.079 43.4282 727C49.3531 735.268 56.217 742.994 64 749.561C77.3969 760.865 93.0947 769.748 110 774.573C142.779 783.927 179.261 780 213 780L520 780L617 780C637.583 780 658.64 781.349 679 777.919C728.273 769.618 770.277 731.36 780.789 682C785.134 661.602 784 640.727 784 620L784 529L784 236L784 171C784 159.135 784.954 146.812 783.83 135C781.356 109.003 773.245 84.8283 757.112 64C751.401 56.6271 744.3 49.4716 737 43.6659C693.875 9.36737 639.585 16 588 16L287 16L188 16C171.326 16 153.533 14.2472 137 16.4244z"/>
<path style="fill:#90cbf9; stroke:none;" d="M380.667 211.333C380.222 211.778 381.278 211.722 381.333 211.667C381.778 211.222 380.722 211.278 380.667 211.333z"/>
<path style="fill:#c8e5fc; stroke:none;" d="M382 211C383.248 211.685 383.548 211.749 385 212C383.752 211.315 383.452 211.251 382 211z"/>
<path style="fill:#ffffff; stroke:none;" d="M385 211.44C371.701 212.925 359.919 220.458 354.349 233C347.132 249.25 352.747 272.536 371 277.956C375.968 279.431 381.87 279.384 387 278.826C406.093 276.75 416.055 257.356 415.999 240C415.956 226.458 409.611 213.892 395 212.054C391.665 211.635 388.36 211.065 385 211.44z"/>
<path style="fill:#c8e5fc; stroke:none;" d="M390 211C391.248 211.685 391.548 211.749 393 212C391.752 211.315 391.452 211.251 390 211z"/>
<path style="fill:#82c4f8; stroke:none;" d="M393 211C394.248 211.685 394.548 211.749 396 212C394.752 211.315 394.452 211.251 393 211z"/>
<path style="fill:#9ed1fa; stroke:none;" d="M376.667 212.333C376.222 212.778 377.278 212.722 377.333 212.667C377.778 212.222 376.722 212.278 376.667 212.333z"/>
<path style="fill:#90cbf9; stroke:none;" d="M398 212L399 213L398 212M374 213L375 214L374 213z"/>
<path style="fill:#82c4f8; stroke:none;" d="M401 213L402 214L401 213z"/>
<path style="fill:#acd8fb; stroke:none;" d="M372 214L373 215L372 214z"/>
<path style="fill:#90cbf9; stroke:none;" d="M403 214L404 215L403 214z"/>
<path style="fill:#9ed1fa; stroke:none;" d="M370 215L371 216L370 215z"/>
<path style="fill:#66b7f7; stroke:none;" d="M368 216L369 217L368 216z"/>
<path style="fill:#9ed1fa; stroke:none;" d="M406 216L407 217L406 216z"/>
<path style="fill:#badefb; stroke:none;" d="M367 217L368 218L367 217z"/>
<path style="fill:#66b7f7; stroke:none;" d="M364 219L365 220L364 219z"/>
<path style="fill:#74bdf8; stroke:none;" d="M363 220L364 221L363 220z"/>
<path style="fill:#9ed1fa; stroke:none;" d="M410 220L411 221L410 220z"/>
<path style="fill:#74bdf8; stroke:none;" d="M362 221L363 222L362 221M361 222L362 223L361 222M360 223L361 224L360 223z"/>
<path style="fill:#90cbf9; stroke:none;" d="M412 223L413 224L412 223M413 225L414 226L413 225z"/>
<path style="fill:#9ed1fa; stroke:none;" d="M357 227L358 228L357 227z"/>
<path style="fill:#66b7f7; stroke:none;" d="M414 227L415 228L414 227z"/>
<path style="fill:#4baaf5; stroke:none;" d="M243.667 230.333C243.222 230.778 244.278 230.722 244.333 230.667C244.778 230.222 243.722 230.278 243.667 230.333z"/>
<path style="fill:#82c4f8; stroke:none;" d="M355 230L356 231L355 230z"/>
<path style="fill:#74bdf8; stroke:none;" d="M415 230L415 233C415.696 231.446 415.696 231.554 415 230z"/>
<path style="fill:#59b0f6; stroke:none;" d="M237.667 231.333C237.222 231.778 238.278 231.722 238.333 231.667C238.778 231.222 237.722 231.278 237.667 231.333z"/>
<path style="fill:#badefb; stroke:none;" d="M239 231C240.248 231.685 240.548 231.749 242 232C240.752 231.315 240.452 231.251 239 231z"/>
<path style="fill:#ffffff; stroke:none;" d="M186 241C186 264.381 186.94 287.683 187.961 311C188.865 331.657 188.135 352.344 189.039 373C189.692 387.904 190.921 403.091 190.921 418C190.921 427.615 189.46 437.388 189.039 447C188.442 460.646 187.349 474.366 187.015 488C186.759 498.416 187.419 509.838 185 520L285 520L311 520C313.865 520 318.86 520.912 321.258 518.972C323.925 516.814 323.343 510.141 323.715 507C325.047 495.747 326.108 484.298 327 473L241 480C241 449.293 238.261 418.777 239.015 388C240.296 335.691 244 283.367 244 231C225.024 234.536 205.214 239.43 186 241z"/>
<path style="fill:#c8e5fc; stroke:none;" d="M244 231L244 234C244.696 232.446 244.696 232.554 244 231z"/>
<path style="fill:#82c4f8; stroke:none;" d="M232 232C233.248 232.685 233.548 232.749 235 233C233.752 232.315 233.452 232.251 232 232z"/>
<path style="fill:#90cbf9; stroke:none;" d="M354 232L355 233L354 232z"/>
<path style="fill:#74bdf8; stroke:none;" d="M226 233C227.248 233.685 227.548 233.749 229 234C227.752 233.315 227.452 233.251 226 233z"/>
<path style="fill:#59b0f6; stroke:none;" d="M220.667 234.333C220.222 234.778 221.278 234.722 221.333 234.667C221.778 234.222 220.722 234.278 220.667 234.333z"/>
<path style="fill:#badefb; stroke:none;" d="M222 234C223.248 234.685 223.549 234.749 225 235C223.752 234.315 223.452 234.251 222 234z"/>
<path style="fill:#90cbf9; stroke:none;" d="M244 234L244 242C245.161 239.23 245.161 236.77 244 234z"/>
<path style="fill:#74bdf8; stroke:none;" d="M353 234L354 235L353 234z"/>
<path style="fill:#82c4f8; stroke:none;" d="M215 235C216.248 235.685 216.548 235.749 218 236C216.752 235.315 216.452 235.251 215 235z"/>
<path style="fill:#74bdf8; stroke:none;" d="M209 236C210.248 236.685 210.548 236.749 212 237C210.752 236.315 210.452 236.251 209 236z"/>
<path style="fill:#59b0f6; stroke:none;" d="M416 236L416 240C416.71 238.241 416.71 237.76 416 236z"/>
<path style="fill:#90cbf9; stroke:none;" d="M204.667 237.333C204.222 237.778 205.278 237.722 205.333 237.667C205.778 237.222 204.722 237.278 204.667 237.333z"/>
<path style="fill:#d5ebfd; stroke:none;" d="M206.667 237.333C206.222 237.778 207.278 237.722 207.333 237.667C207.778 237.222 206.722 237.278 206.667 237.333z"/>
<path style="fill:#badefb; stroke:none;" d="M352.333 237.667C352.278 237.722 352.222 238.778 352.667 238.333C352.722 238.278 352.778 237.222 352.333 237.667z"/>
<path style="fill:#82c4f8; stroke:none;" d="M198.667 238.333C198.222 238.778 199.278 238.722 199.333 238.667C199.778 238.222 198.722 238.278 198.667 238.333z"/>
<path style="fill:#c8e5fc; stroke:none;" d="M200.667 238.333C200.222 238.778 201.278 238.722 201.333 238.667C201.778 238.222 200.722 238.278 200.667 238.333z"/>
<path style="fill:#74bdf8; stroke:none;" d="M192 239C193.248 239.685 193.548 239.749 195 240C193.752 239.315 193.452 239.251 192 239z"/>
<path style="fill:#90cbf9; stroke:none;" d="M187.667 240.333C187.222 240.778 188.278 240.722 188.333 240.667C188.778 240.222 187.722 240.278 187.667 240.333z"/>
<path style="fill:#d5ebfd; stroke:none;" d="M189.667 240.333C189.222 240.778 190.278 240.722 190.333 240.667C190.778 240.222 189.722 240.278 189.667 240.333z"/>
<path style="fill:#74bdf8; stroke:none;" d="M351 240L351 243C351.696 241.446 351.696 241.554 351 240z"/>
<path style="fill:#90cbf9; stroke:none;" d="M416 240L416 243C416.696 241.446 416.696 241.554 416 240z"/>
<path style="fill:#c8e5fc; stroke:none;" d="M185 241L185 244C185.696 242.446 185.696 242.554 185 241z"/>
<path style="fill:#59b0f6; stroke:none;" d="M244 242L244 250C245.161 247.23 245.161 244.77 244 242z"/>
<path style="fill:#c8e5fc; stroke:none;" d="M351 243L351 253C352.346 249.793 352.346 246.207 351 243z"/>
<path style="fill:#59b0f6; stroke:none;" d="M416 243L416 247C416.71 245.24 416.71 244.759 416 243z"/>
<path style="fill:#90cbf9; stroke:none;" d="M185 244L185 253C186.256 250.006 186.256 246.994 185 244z"/>
<path style="fill:#c8e5fc; stroke:none;" d="M415.333 248.667C415.278 248.722 415.222 249.778 415.667 249.333C415.722 249.278 415.778 248.222 415.333 248.667z"/>
<path style="fill:#59b0f6; stroke:none;" d="M415.333 250.667C415.278 250.722 415.222 251.778 415.667 251.333C415.722 251.278 415.778 250.222 415.333 250.667M185 253L185 262C186.256 259.006 186.256 255.994 185 253z"/>
<path style="fill:#74bdf8; stroke:none;" d="M351 253L351 256C351.696 254.446 351.696 254.554 351 253z"/>
<path style="fill:#badefb; stroke:none;" d="M414 253L415 254L414 253z"/>
<path style="fill:#74bdf8; stroke:none;" d="M414 254L415 255L414 254z"/>
<path style="fill:#acd8fb; stroke:none;" d="M413 256L414 257L413 256z"/>
<path style="fill:#c8e5fc; stroke:none;" d="M243 257L243 265C244.161 262.23 244.161 259.77 243 257z"/>
<path style="fill:#9ed1fa; stroke:none;" d="M352 258L353 259L352 258M353 261L354 262L353 261M410 262L411 263L410 262z"/>
<path style="fill:#90cbf9; stroke:none;" d="M243 265L243 273C244.161 270.23 244.161 267.77 243 265z"/>
<path style="fill:#82c4f8; stroke:none;" d="M408 265L409 266L408 265z"/>
<path style="fill:#acd8fb; stroke:none;" d="M407 266L408 267L407 266z"/>
<path style="fill:#90cbf9; stroke:none;" d="M356 267L357 268L356 267z"/>
<path style="fill:#c8e5fc; stroke:none;" d="M186 271L186 280C187.256 277.006 187.256 273.994 186 271z"/>
<path style="fill:#acd8fb; stroke:none;" d="M401 272L402 273L401 272z"/>
<path style="fill:#59b0f6; stroke:none;" d="M243 273L243 281C244.161 278.23 244.161 275.77 243 273z"/>
<path style="fill:#74bdf8; stroke:none;" d="M400 273L401 274L400 273z"/>
<path style="fill:#9ed1fa; stroke:none;" d="M363 274L364 275L363 274z"/>
<path style="fill:#74bdf8; stroke:none;" d="M397 275L398 276L397 275M366 276L367 277L366 276z"/>
<path style="fill:#90cbf9; stroke:none;" d="M395 276L396 277L395 276z"/>
<path style="fill:#74bdf8; stroke:none;" d="M368 277L369 278L368 277z"/>
<path style="fill:#badefb; stroke:none;" d="M369 277L370 278L369 277z"/>
<path style="fill:#74bdf8; stroke:none;" d="M393 277L394 278L393 277z"/>
<path style="fill:#acd8fb; stroke:none;" d="M371.667 278.333C371.222 278.778 372.278 278.722 372.333 278.667C372.778 278.222 371.722 278.278 371.667 278.333z"/>
<path style="fill:#badefb; stroke:none;" d="M389 278L390 279L389 278z"/>
<path style="fill:#90cbf9; stroke:none;" d="M375 279C376.769 279.779 378.036 279.912 380 280C378.231 279.221 376.964 279.088 375 279z"/>
<path style="fill:#c8e5fc; stroke:none;" d="M380 279C381.248 279.685 381.548 279.749 383 280C381.752 279.315 381.452 279.251 380 279z"/>
<path style="fill:#90cbf9; stroke:none;" d="M383 279C384.248 279.685 384.548 279.749 386 280C384.752 279.315 384.452 279.251 383 279M186 280L186 288C187.161 285.23 187.161 282.77 186 280z"/>
<path style="fill:#59b0f6; stroke:none;" d="M186 288L186 298C187.346 294.793 187.346 291.207 186 288z"/>
<path style="fill:#c8e5fc; stroke:none;" d="M242 288L242 296C243.161 293.23 243.161 290.77 242 288z"/>
<path style="fill:#90cbf9; stroke:none;" d="M242 296L242 304C243.161 301.23 243.161 298.77 242 296z"/>
<path style="fill:#59b0f6; stroke:none;" d="M242 304L242 312C243.161 309.23 243.161 306.77 242 304z"/>
<path style="fill:#c8e5fc; stroke:none;" d="M187 306L187 315C188.256 312.006 188.256 308.994 187 306z"/>
<path style="fill:#74bdf8; stroke:none;" d="M406 308C407.248 308.685 407.548 308.749 409 309C407.752 308.315 407.452 308.251 406 308z"/>
<path style="fill:#ffffff; stroke:none;" d="M409 308C391.477 313.932 371.977 314.571 354 319C355.574 325.613 354.629 332.28 355.09 339C356.048 352.995 356.671 366.963 357.015 381C357.284 391.981 358.716 403.019 358.985 414C359.646 440.964 359 468.027 359 495C359 509.865 360.993 526.378 358.195 541C357.061 546.925 355.56 553.163 351.471 557.815C340.392 570.418 322.769 562.854 309 561C306.603 577.301 299.201 592.652 297 609C314.209 609.355 330.851 614.949 348 609.652C359.146 606.209 368.761 600.231 376.996 591.996C382.449 586.544 387.169 580.504 391.305 574C416.543 534.305 407.975 487.2 406.039 443C405.499 430.664 404.98 418.361 405 406C405.036 383.865 406.576 361.099 408.09 339C408.569 332.006 408.611 324.992 409.09 318C409.331 314.472 410.365 311.347 409 308z"/>
<path style="fill:#acd8fb; stroke:none;" d="M500 308C501.248 308.685 501.548 308.749 503 309C501.752 308.315 501.452 308.251 500 308z"/>
<path style="fill:#ffffff; stroke:none;" d="M503 308C487.019 313.412 469.399 314.958 453 319C456.98 333.163 457.711 348.419 459.169 363C460.884 380.156 462.821 397.76 462.821 415C462.821 427.27 461.576 439.739 461.039 452C460.149 472.324 460.851 492.676 459.961 513C458.563 544.916 457 577.031 457 609C469.788 605.692 483.071 604.311 496 601.664C500.402 600.763 507.841 601.083 511.397 598.012C515.039 594.865 513 583.42 513 579C513 569.621 512.015 560.331 512 551C511.983 540.428 512.935 529.424 511 519C519.371 519.023 527.581 520.329 536 519.961C553.198 519.208 570.002 513.625 584 503.572C615.611 480.87 627.548 444.072 630.089 407C631.256 389.98 630.823 371.268 624.771 355C621.713 346.781 617.769 338.912 612.331 332C608.281 326.853 603.503 322.264 598 318.699C593.669 315.894 588.956 313.52 584 312.042C552.373 302.613 525.184 327.096 508 351C505.889 342.133 505.818 332.107 505.086 323C504.699 318.193 504.867 312.44 503 308z"/>
<path style="fill:#90cbf9; stroke:none;" d="M401 309C402.248 309.685 402.548 309.749 404 310C402.752 309.315 402.452 309.251 401 309z"/>
<path style="fill:#9ed1fa; stroke:none;" d="M495 309C496.248 309.685 496.548 309.749 498 310C496.752 309.315 496.452 309.251 495 309z"/>
<path style="fill:#59b0f6; stroke:none;" d="M563 309C564.248 309.685 564.548 309.749 566 310C564.752 309.315 564.452 309.251 563 309z"/>
<path style="fill:#90cbf9; stroke:none;" d="M566 309C567.506 309.683 568.315 309.826 570 310C568.494 309.317 567.685 309.174 566 309z"/>
<path style="fill:#59b0f6; stroke:none;" d="M570 309C571.506 309.683 572.315 309.826 574 310C572.494 309.317 571.685 309.174 570 309z"/>
<path style="fill:#66b7f7; stroke:none;" d="M395 310C396.248 310.685 396.548 310.749 398 311C396.752 310.315 396.452 310.251 395 310z"/>
<path style="fill:#90cbf9; stroke:none;" d="M490 310C491.248 310.685 491.548 310.749 493 311C491.752 310.315 491.452 310.251 490 310z"/>
<path style="fill:#59b0f6; stroke:none;" d="M504.333 310.667C504.278 310.722 504.222 311.778 504.667 311.333C504.722 311.278 504.778 310.222 504.333 310.667z"/>
<path style="fill:#90cbf9; stroke:none;" d="M558.667 310.333C558.222 310.778 559.278 310.722 559.333 310.667C559.778 310.222 558.722 310.278 558.667 310.333z"/>
<path style="fill:#acd8fb; stroke:none;" d="M576 310C577.248 310.685 577.548 310.749 579 311C577.752 310.315 577.452 310.251 576 310z"/>
<path style="fill:#82c4f8; stroke:none;" d="M390 311C391.248 311.685 391.548 311.749 393 312C391.752 311.315 391.452 311.251 390 311z"/>
<path style="fill:#74bdf8; stroke:none;" d="M485.667 311.333C485.222 311.778 486.278 311.722 486.333 311.667C486.778 311.222 485.722 311.278 485.667 311.333z"/>
<path style="fill:#d5ebfd; stroke:none;" d="M487.667 311.333C487.222 311.778 488.278 311.722 488.333 311.667C488.778 311.222 487.722 311.278 487.667 311.333z"/>
<path style="fill:#74bdf8; stroke:none;" d="M555 311L556 312L555 311z"/>
<path style="fill:#9ed1fa; stroke:none;" d="M582 311L583 312L582 311z"/>
<path style="fill:#90cbf9; stroke:none;" d="M385.667 312.333C385.222 312.778 386.278 312.722 386.333 312.667C386.778 312.222 385.722 312.278 385.667 312.333z"/>
<path style="fill:#d5ebfd; stroke:none;" d="M387.667 312.333C387.222 312.778 388.278 312.722 388.333 312.667C388.778 312.222 387.722 312.278 387.667 312.333z"/>
<path style="fill:#90cbf9; stroke:none;" d="M481.667 312.333C481.222 312.778 482.278 312.722 482.333 312.667C482.778 312.222 481.722 312.278 481.667 312.333M504.333 312.667C504.278 312.722 504.222 313.778 504.667 313.333C504.722 313.278 504.778 312.222 504.333 312.667z"/>
<path style="fill:#66b7f7; stroke:none;" d="M552 312L553 313L552 312z"/>
<path style="fill:#acd8fb; stroke:none;" d="M553 312L554 313L553 312M585 312L586 313L585 312z"/>
<path style="fill:#66b7f7; stroke:none;" d="M586 312L587 313L586 312M379 313C380.248 313.685 380.548 313.749 382 314C380.752 313.315 380.452 313.251 379 313z"/>
<path style="fill:#90cbf9; stroke:none;" d="M476.667 313.333C476.222 313.778 477.278 313.722 477.333 313.667C477.778 313.222 476.722 313.278 476.667 313.333z"/>
<path style="fill:#74bdf8; stroke:none;" d="M550 313L551 314L550 313z"/>
<path style="fill:#90cbf9; stroke:none;" d="M588 313L589 314L588 313z"/>
<path style="fill:#82c4f8; stroke:none;" d="M374.667 314.333C374.222 314.778 375.278 314.722 375.333 314.667C375.778 314.222 374.722 314.278 374.667 314.333z"/>
<path style="fill:#c8e5fc; stroke:none;" d="M376.667 314.333C376.222 314.778 377.278 314.722 377.333 314.667C377.778 314.222 376.722 314.278 376.667 314.333M409 314L409 319C409.83 316.97 409.83 316.03 409 314z"/>
<path style="fill:#74bdf8; stroke:none;" d="M471.667 314.333C471.222 314.778 472.278 314.722 472.333 314.667C472.778 314.222 471.722 314.278 471.667 314.333z"/>
<path style="fill:#d5ebfd; stroke:none;" d="M473.667 314.333C473.222 314.778 474.278 314.722 474.333 314.667C474.778 314.222 473.722 314.278 473.667 314.333z"/>
<path style="fill:#c8e5fc; stroke:none;" d="M504 314L504 317C504.696 315.446 504.696 315.554 504 314z"/>
<path style="fill:#90cbf9; stroke:none;" d="M548 314L549 315L548 314z"/>
<path style="fill:#acd8fb; stroke:none;" d="M590 314L591 315L590 314z"/>
<path style="fill:#90cbf9; stroke:none;" d="M187 315L187 324C188.256 321.006 188.256 317.994 187 315z"/>
<path style="fill:#59b0f6; stroke:none;" d="M368.667 315.333C368.222 315.778 369.278 315.722 369.333 315.667C369.778 315.222 368.722 315.278 368.667 315.333z"/>
<path style="fill:#badefb; stroke:none;" d="M370.667 315.333C370.222 315.778 371.278 315.722 371.333 315.667C371.778 315.222 370.722 315.278 370.667 315.333z"/>
<path style="fill:#90cbf9; stroke:none;" d="M467.667 315.333C467.222 315.778 468.278 315.722 468.333 315.667C468.778 315.222 467.722 315.278 467.667 315.333M546 315L547 316L546 315z"/>
<path style="fill:#acd8fb; stroke:none;" d="M592 315L593 316L592 315z"/>
<path style="fill:#74bdf8; stroke:none;" d="M363 316C364.248 316.685 364.548 316.749 366 317C364.752 316.315 364.452 316.251 363 316z"/>
<path style="fill:#90cbf9; stroke:none;" d="M462.667 316.333C462.222 316.778 463.278 316.722 463.333 316.667C463.778 316.222 462.722 316.278 462.667 316.333z"/>
<path style="fill:#66b7f7; stroke:none;" d="M544 316L545 317L544 316z"/>
<path style="fill:#90cbf9; stroke:none;" d="M594 316L595 317L594 316z"/>
<path style="fill:#82c4f8; stroke:none;" d="M358.667 317.333C358.222 317.778 359.278 317.722 359.333 317.667C359.778 317.222 358.722 317.278 358.667 317.333z"/>
<path style="fill:#d5ebfd; stroke:none;" d="M360.667 317.333C360.222 317.778 361.278 317.722 361.333 317.667C361.778 317.222 360.722 317.278 360.667 317.333z"/>
<path style="fill:#74bdf8; stroke:none;" d="M457.667 317.333C457.222 317.778 458.278 317.722 458.333 317.667C458.778 317.222 457.722 317.278 457.667 317.333z"/>
<path style="fill:#d5ebfd; stroke:none;" d="M459.667 317.333C459.222 317.778 460.278 317.722 460.333 317.667C460.778 317.222 459.722 317.278 459.667 317.333z"/>
<path style="fill:#66b7f7; stroke:none;" d="M596 317L597 318L596 317z"/>
<path style="fill:#badefb; stroke:none;" d="M354.667 318.333C354.222 318.778 355.278 318.722 355.333 318.667C355.778 318.222 354.722 318.278 354.667 318.333z"/>
<path style="fill:#90cbf9; stroke:none;" d="M453.667 318.333C453.222 318.778 454.278 318.722 454.333 318.667C454.778 318.222 453.722 318.278 453.667 318.333z"/>
<path style="fill:#82c4f8; stroke:none;" d="M541 318L542 319L541 318z"/>
<path style="fill:#badefb; stroke:none;" d="M597 318L598 319L597 318z"/>
<path style="fill:#c8e5fc; stroke:none;" d="M241 319L241 327C242.161 324.23 242.161 321.77 241 319z"/>
<path style="fill:#90cbf9; stroke:none;" d="M409 319L409 324C409.83 321.969 409.83 321.03 409 319z"/>
<path style="fill:#59b0f6; stroke:none;" d="M505 319L505 322C505.696 320.446 505.696 320.554 505 319z"/>
<path style="fill:#c8e5fc; stroke:none;" d="M354 320L354 326C354.951 323.715 354.951 322.285 354 320z"/>
<path style="fill:#74bdf8; stroke:none;" d="M453 320L453 323C453.696 321.446 453.696 321.554 453 320M538 320L539 321L538 320z"/>
<path style="fill:#9ed1fa; stroke:none;" d="M600 320L601 321L600 320z"/>
<path style="fill:#badefb; stroke:none;" d="M537 321L538 322L537 321z"/>
<path style="fill:#90cbf9; stroke:none;" d="M505.333 322.667C505.278 322.722 505.222 323.778 505.667 323.333C505.722 323.278 505.778 322.222 505.333 322.667z"/>
<path style="fill:#82c4f8; stroke:none;" d="M534 323L535 324L534 323z"/>
<path style="fill:#59b0f6; stroke:none;" d="M187 324L187 333C188.256 330.006 188.256 326.994 187 324M409 324L409 330C409.951 327.715 409.951 326.285 409 324z"/>
<path style="fill:#c8e5fc; stroke:none;" d="M454.333 324.667C454.278 324.722 454.222 325.778 454.667 325.333C454.722 325.278 454.778 324.222 454.333 324.667M505 324L505 327C505.696 325.446 505.696 325.554 505 324z"/>
<path style="fill:#badefb; stroke:none;" d="M533 324L534 325L533 324z"/>
<path style="fill:#66b7f7; stroke:none;" d="M605 324L606 325L605 324z"/>
<path style="fill:#74bdf8; stroke:none;" d="M606 325L607 326L606 325z"/>
<path style="fill:#90cbf9; stroke:none;" d="M354 326L354 331C354.83 328.97 354.83 328.03 354 326z"/>
<path style="fill:#82c4f8; stroke:none;" d="M454.333 326.667C454.278 326.722 454.222 327.778 454.667 327.333C454.722 327.278 454.778 326.222 454.333 326.667z"/>
<path style="fill:#74bdf8; stroke:none;" d="M530 326L531 327L530 326M607 326L608 327L607 326z"/>
<path style="fill:#90cbf9; stroke:none;" d="M241 327L241 335C242.161 332.23 242.161 329.77 241 327z"/>
<path style="fill:#9ed1fa; stroke:none;" d="M529 327L530 328L529 327z"/>
<path style="fill:#badefb; stroke:none;" d="M528 328L529 329L528 328z"/>
<path style="fill:#59b0f6; stroke:none;" d="M506 329L506 332C506.696 330.446 506.696 330.554 506 329M354 331L354 337C354.951 334.715 354.951 333.285 354 331z"/>
<path style="fill:#badefb; stroke:none;" d="M455.333 331.667C455.278 331.722 455.222 332.778 455.667 332.333C455.722 332.278 455.778 331.222 455.333 331.667z"/>
<path style="fill:#90cbf9; stroke:none;" d="M506 332L506 335C506.696 333.446 506.696 333.554 506 332z"/>
<path style="fill:#74bdf8; stroke:none;" d="M523 332L524 333L523 332z"/>
<path style="fill:#9ed1fa; stroke:none;" d="M612 332L613 333L612 332z"/>
<path style="fill:#82c4f8; stroke:none;" d="M455.333 333.667C455.278 333.722 455.222 334.778 455.667 334.333C455.722 334.278 455.778 333.222 455.333 333.667z"/>
<path style="fill:#74bdf8; stroke:none;" d="M522 333L523 334L522 333z"/>
<path style="fill:#66b7f7; stroke:none;" d="M613 333L614 334L613 333z"/>
<path style="fill:#74bdf8; stroke:none;" d="M521 334L522 335L521 334z"/>
<path style="fill:#59b0f6; stroke:none;" d="M241 335L241 343C242.161 340.23 242.161 337.77 241 335z"/>
<path style="fill:#c8e5fc; stroke:none;" d="M408 335L408 340C408.83 337.97 408.83 337.03 408 335M506 335L506 338C506.696 336.446 506.696 336.554 506 335z"/>
<path style="fill:#74bdf8; stroke:none;" d="M520 335L521 336L520 335M519 336L520 337L519 336z"/>
<path style="fill:#90cbf9; stroke:none;" d="M615 336L616 337L615 336z"/>
<path style="fill:#74bdf8; stroke:none;" d="M518 337L519 338L518 337z"/>
<path style="fill:#c8e5fc; stroke:none;" d="M456.333 338.667C456.278 338.722 456.222 339.778 456.667 339.333C456.722 339.278 456.778 338.222 456.333 338.667z"/>
<path style="fill:#82c4f8; stroke:none;" d="M617 339L618 340L617 339z"/>
<path style="fill:#90cbf9; stroke:none;" d="M408 340L408 345C408.83 342.97 408.83 342.03 408 340M456.333 340.667C456.278 340.722 456.222 341.778 456.667 341.333C456.722 341.278 456.778 340.222 456.333 340.667z"/>
<path style="fill:#59b0f6; stroke:none;" d="M507 340L507 343C507.696 341.446 507.696 341.554 507 340z"/>
<path style="fill:#badefb; stroke:none;" d="M515 341L516 342L515 341z"/>
<path style="fill:#acd8fb; stroke:none;" d="M618 341L619 342L618 341z"/>
<path style="fill:#c8e5fc; stroke:none;" d="M188 342L188 351C189.256 348.006 189.256 344.994 188 342M355 342L355 348C355.951 345.715 355.951 344.285 355 342z"/>
<path style="fill:#59b0f6; stroke:none;" d="M456.333 342.667C456.278 342.722 456.222 343.778 456.667 343.333C456.722 343.278 456.778 342.222 456.333 342.667z"/>
<path style="fill:#90cbf9; stroke:none;" d="M514 342L515 343L514 342M507 343L507 346C507.696 344.446 507.696 344.554 507 343z"/>
<path style="fill:#74bdf8; stroke:none;" d="M513 343L514 344L513 343z"/>
<path style="fill:#59b0f6; stroke:none;" d="M408 345L408 350C408.83 347.97 408.83 347.03 408 345z"/>
<path style="fill:#c8e5fc; stroke:none;" d="M457.333 346.667C457.278 346.722 457.222 347.778 457.667 347.333C457.722 347.278 457.778 346.222 457.333 346.667M507 346L507 350C507.71 348.24 507.71 347.76 507 346z"/>
<path style="fill:#badefb; stroke:none;" d="M511 346L512 347L511 346z"/>
<path style="fill:#82c4f8; stroke:none;" d="M510 347L511 348L510 347z"/>
<path style="fill:#badefb; stroke:none;" d="M621 347L622 348L621 347z"/>
<path style="fill:#90cbf9; stroke:none;" d="M355 348L355 353C355.83 350.97 355.83 350.03 355 348M457.333 348.667C457.278 348.722 457.222 349.778 457.667 349.333C457.722 349.278 457.778 348.222 457.333 348.667z"/>
<path style="fill:#acd8fb; stroke:none;" d="M622 349L623 350L622 349z"/>
<path style="fill:#59b0f6; stroke:none;" d="M457 350L457 353C457.696 351.446 457.696 351.554 457 350z"/>
<path style="fill:#9ed1fa; stroke:none;" d="M508 350L509 351L508 350z"/>
<path style="fill:#90cbf9; stroke:none;" d="M188 351L188 360C189.256 357.006 189.256 353.994 188 351z"/>
<path style="fill:#c8e5fc; stroke:none;" d="M240 351L240 359C241.161 356.23 241.161 353.77 240 351z"/>
<path style="fill:#82c4f8; stroke:none;" d="M623 351L624 352L623 351z"/>
<path style="fill:#59b0f6; stroke:none;" d="M355 353L355 359C355.951 356.715 355.951 355.285 355 353z"/>
<path style="fill:#9ed1fa; stroke:none;" d="M624 354L625 355L624 354z"/>
<path style="fill:#c8e5fc; stroke:none;" d="M407 355L407 361C407.951 358.715 407.951 357.285 407 355M458.333 355.667C458.278 355.722 458.222 356.778 458.667 356.333C458.722 356.278 458.778 355.222 458.333 355.667z"/>
<path style="fill:#66b7f7; stroke:none;" d="M625 356L626 357L625 356z"/>
<path style="fill:#90cbf9; stroke:none;" d="M458.333 357.667C458.278 357.722 458.222 358.778 458.667 358.333C458.722 358.278 458.778 357.222 458.333 357.667M240 359L240 366C241.059 363.466 241.059 361.534 240 359z"/>
<path style="fill:#59b0f6; stroke:none;" d="M458 359L458 362C458.696 360.446 458.696 360.554 458 359M188 360L188 369C189.256 366.006 189.256 362.994 188 360z"/>
<path style="fill:#90cbf9; stroke:none;" d="M626 360L627 361L626 360M407 361L407 366C407.83 363.97 407.83 363.03 407 361z"/>
<path style="fill:#9ed1fa; stroke:none;" d="M627.333 363.667C627.278 363.722 627.222 364.778 627.667 364.333C627.722 364.278 627.778 363.222 627.333 363.667z"/>
<path style="fill:#c8e5fc; stroke:none;" d="M356 364L356 370C356.951 367.715 356.951 366.285 356 364M540.667 364.333C540.222 364.778 541.278 364.722 541.333 364.667C541.778 364.222 540.722 364.278 540.667 364.333z"/>
<path style="fill:#90cbf9; stroke:none;" d="M542.667 364.333C542.222 364.778 543.278 364.722 543.333 364.667C543.778 364.222 542.722 364.278 542.667 364.333z"/>
<path style="fill:#59b0f6; stroke:none;" d="M544 364C545.506 364.683 546.315 364.826 548 365C546.494 364.317 545.685 364.174 544 364z"/>
<path style="fill:#2196f3; stroke:none;" d="M511 471C527.135 474.006 550.145 479.294 565 469.867C587.525 455.571 586.047 420.049 582.41 397C580.997 388.047 578.238 378.829 571.815 372.093C560.158 359.871 539.231 364.133 525 368.745C520.558 370.185 512.681 372.231 510.028 376.39C508.089 379.43 509 384.562 509 388C509 397.308 508.632 406.701 509.039 416C509.84 434.271 511 452.701 511 471z"/>
<path style="fill:#59b0f6; stroke:none;" d="M554 364C555.506 364.683 556.315 364.826 558 365C556.494 364.317 555.685 364.174 554 364z"/>
<path style="fill:#c8e5fc; stroke:none;" d="M459 365L459 368C459.696 366.446 459.696 366.554 459 365z"/>
<path style="fill:#90cbf9; stroke:none;" d="M535.667 365.333C535.222 365.778 536.278 365.722 536.333 365.667C536.778 365.222 535.722 365.278 535.667 365.333z"/>
<path style="fill:#9ed1fa; stroke:none;" d="M561 365L562 366L561 365z"/>
<path style="fill:#59b0f6; stroke:none;" d="M240 366L240 374C241.161 371.23 241.161 368.77 240 366M407 366L407 371C407.83 368.97 407.83 368.03 407 366z"/>
<path style="fill:#74bdf8; stroke:none;" d="M531.667 366.333C531.222 366.778 532.278 366.722 532.333 366.667C532.778 366.222 531.722 366.278 531.667 366.333z"/>
<path style="fill:#4baaf5; stroke:none;" d="M528.667 367.333C528.222 367.778 529.278 367.722 529.333 367.667C529.778 367.222 528.722 367.278 528.667 367.333z"/>
<path style="fill:#90cbf9; stroke:none;" d="M628.333 367.667C628.278 367.722 628.222 368.778 628.667 368.333C628.722 368.278 628.778 367.222 628.333 367.667M459.333 368.667C459.278 368.722 459.222 369.778 459.667 369.333C459.722 369.278 459.778 368.222 459.333 368.667z"/>
<path style="fill:#82c4f8; stroke:none;" d="M525 368L526 369L525 368M567 368L568 369L567 368z"/>
<path style="fill:#9ed1fa; stroke:none;" d="M522 369L523 370L522 369z"/>
<path style="fill:#d5ebfd; stroke:none;" d="M628.333 369.667C628.278 369.722 628.222 370.778 628.667 370.333C628.722 370.278 628.778 369.222 628.333 369.667z"/>
<path style="fill:#90cbf9; stroke:none;" d="M356 370L356 375C356.83 372.97 356.83 372.03 356 370z"/>
<path style="fill:#59b0f6; stroke:none;" d="M459 370L459 373C459.696 371.446 459.696 371.554 459 370z"/>
<path style="fill:#74bdf8; stroke:none;" d="M520 370L521 371L520 370z"/>
<path style="fill:#acd8fb; stroke:none;" d="M517 371L518 372L517 371M571 371L572 372L571 371M515 372L516 373L515 372z"/>
<path style="fill:#66b7f7; stroke:none;" d="M629.333 372.667C629.278 372.722 629.222 373.778 629.667 373.333C629.722 373.278 629.778 372.222 629.333 372.667z"/>
<path style="fill:#acd8fb; stroke:none;" d="M513 373L514 374L513 373M511 374L512 375L511 374z"/>
<path style="fill:#badefb; stroke:none;" d="M629 374L629 377C629.696 375.446 629.696 375.554 629 374z"/>
<path style="fill:#59b0f6; stroke:none;" d="M356 375L356 381C356.951 378.715 356.951 377.285 356 375z"/>
<path style="fill:#66b7f7; stroke:none;" d="M574 375L575 376L574 375z"/>
<path style="fill:#c8e5fc; stroke:none;" d="M406 376L406 382C406.951 379.715 406.951 378.285 406 376M460 376L460 380C460.71 378.24 460.71 377.759 460 376z"/>
<path style="fill:#badefb; stroke:none;" d="M575 376L576 377L575 376z"/>
<path style="fill:#c8e5fc; stroke:none;" d="M189 377L189 387C190.346 383.793 190.346 380.207 189 377z"/>
<path style="fill:#82c4f8; stroke:none;" d="M576 378L577 379L576 378z"/>
<path style="fill:#59b0f6; stroke:none;" d="M630 379L630 382C630.696 380.446 630.696 380.554 630 379z"/>
<path style="fill:#90cbf9; stroke:none;" d="M460 380L460 383C460.696 381.446 460.696 381.554 460 380z"/>
<path style="fill:#74bdf8; stroke:none;" d="M577 380L578 381L577 380z"/>
<path style="fill:#c8e5fc; stroke:none;" d="M239 382L239 390C240.161 387.23 240.161 384.77 239 382z"/>
<path style="fill:#90cbf9; stroke:none;" d="M406 382L406 386C406.71 384.24 406.71 383.759 406 382z"/>
<path style="fill:#74bdf8; stroke:none;" d="M578 382L579 383L578 382z"/>
<path style="fill:#90cbf9; stroke:none;" d="M630 382L630 385C630.696 383.446 630.696 383.554 630 382z"/>
<path style="fill:#59b0f6; stroke:none;" d="M460 383L460 387C460.71 385.24 460.71 384.759 460 383z"/>
<path style="fill:#acd8fb; stroke:none;" d="M579 384L580 385L579 384z"/>
<path style="fill:#c8e5fc; stroke:none;" d="M630 385L630 390C630.83 387.97 630.83 387.03 630 385M357 386L357 392C357.951 389.715 357.951 388.285 357 386z"/>
<path style="fill:#59b0f6; stroke:none;" d="M406 386L406 392C406.951 389.715 406.951 388.285 406 386z"/>
<path style="fill:#90cbf9; stroke:none;" d="M189 387L189 395C190.161 392.23 190.161 389.77 189 387z"/>
<path style="fill:#9ed1fa; stroke:none;" d="M580 387L581 388L580 387z"/>
<path style="fill:#90cbf9; stroke:none;" d="M239 390L239 397C240.059 394.466 240.059 392.534 239 390z"/>
<path style="fill:#82c4f8; stroke:none;" d="M581.333 390.667C581.278 390.722 581.222 391.778 581.667 391.333C581.722 391.278 581.778 390.222 581.333 390.667z"/>
<path style="fill:#c8e5fc; stroke:none;" d="M461 391L461 395C461.71 393.24 461.71 392.76 461 391z"/>
<path style="fill:#90cbf9; stroke:none;" d="M357 392L357 397C357.83 394.969 357.83 394.031 357 392z"/>
<path style="fill:#59b0f6; stroke:none;" d="M189 395L189 404C190.256 401.006 190.256 397.994 189 395z"/>
<path style="fill:#90cbf9; stroke:none;" d="M461 395L461 400C461.83 397.97 461.83 397.03 461 395z"/>
<path style="fill:#66b7f7; stroke:none;" d="M582 395L582 398C582.696 396.446 582.696 396.554 582 395z"/>
<path style="fill:#59b0f6; stroke:none;" d="M239 397L239 405C240.161 402.23 240.161 399.77 239 397M357 397L357 403C357.951 400.715 357.951 399.285 357 397z"/>
<path style="fill:#c8e5fc; stroke:none;" d="M405 397L405 402C405.83 399.969 405.83 399.03 405 397M583.333 399.667C583.278 399.722 583.222 400.778 583.667 400.333C583.722 400.278 583.778 399.222 583.333 399.667z"/>
<path style="fill:#59b0f6; stroke:none;" d="M461 400L461 406C461.951 403.715 461.951 402.285 461 400z"/>
<path style="fill:#90cbf9; stroke:none;" d="M583.333 401.667C583.278 401.722 583.222 402.778 583.667 402.333C583.722 402.278 583.778 401.222 583.333 401.667M405 402L405 407C405.83 404.969 405.83 404.03 405 402z"/>
<path style="fill:#59b0f6; stroke:none;" d="M583 403L583 406C583.696 404.446 583.696 404.554 583 403z"/>
<path style="fill:#c8e5fc; stroke:none;" d="M630 403L630 409C630.951 406.715 630.951 405.285 630 403z"/>
<path style="fill:#59b0f6; stroke:none;" d="M405 407L405 417C406.346 413.793 406.346 410.207 405 407z"/>
<path style="fill:#c8e5fc; stroke:none;" d="M358 408L358 414C358.951 411.715 358.951 410.285 358 408M584 409L584 414C584.83 411.97 584.83 411.03 584 409z"/>
<path style="fill:#90cbf9; stroke:none;" d="M630 409L630 412C630.696 410.446 630.696 410.554 630 409z"/>
<path style="fill:#c8e5fc; stroke:none;" d="M462 411L462 419C463.161 416.23 463.161 413.77 462 411z"/>
<path style="fill:#59b0f6; stroke:none;" d="M630 412L630 415C630.696 413.446 630.696 413.554 630 412z"/>
<path style="fill:#c8e5fc; stroke:none;" d="M190 413L190 423C191.346 419.793 191.346 416.207 190 413z"/>
<path style="fill:#90cbf9; stroke:none;" d="M358 414L358 419C358.83 416.969 358.83 416.03 358 414M584 414L584 425C585.431 421.59 585.431 417.41 584 414z"/>
<path style="fill:#59b0f6; stroke:none;" d="M239 417L239 423C239.951 420.715 239.951 419.285 239 417z"/>
<path style="fill:#90cbf9; stroke:none;" d="M405 417L405 422C405.83 419.969 405.83 419.03 405 417z"/>
<path style="fill:#c8e5fc; stroke:none;" d="M629.333 417.667C629.278 417.722 629.222 418.778 629.667 418.333C629.722 418.278 629.778 417.222 629.333 417.667z"/>
<path style="fill:#59b0f6; stroke:none;" d="M358 419L358 480C359.875 475.531 359 469.809 359 465L359 435C359 429.92 359.981 423.72 358 419z"/>
<path style="fill:#90cbf9; stroke:none;" d="M629.333 419.667C629.278 419.722 629.222 420.778 629.667 420.333C629.722 420.278 629.778 419.222 629.333 419.667z"/>
<path style="fill:#59b0f6; stroke:none;" d="M509 420L509 429C510.256 426.006 510.256 422.994 509 420M629.333 421.667C629.278 421.722 629.222 422.778 629.667 422.333C629.722 422.278 629.778 421.222 629.333 421.667z"/>
<path style="fill:#c8e5fc; stroke:none;" d="M405 422L405 427C405.83 424.97 405.83 424.03 405 422z"/>
<path style="fill:#59b0f6; stroke:none;" d="M461 422L461 431C462.256 428.006 462.256 424.994 461 422z"/>
<path style="fill:#90cbf9; stroke:none;" d="M239 423L239 429C239.951 426.715 239.951 425.285 239 423z"/>
<path style="fill:#c8e5fc; stroke:none;" d="M584 425L584 430C584.83 427.97 584.83 427.03 584 425z"/>
<path style="fill:#9ed1fa; stroke:none;" d="M628 425L628 428C628.696 426.446 628.696 426.554 628 425z"/>
<path style="fill:#59b0f6; stroke:none;" d="M189 427L189 433C189.951 430.715 189.951 429.285 189 427z"/>
<path style="fill:#c8e5fc; stroke:none;" d="M239 429L239 435C239.951 432.715 239.951 431.285 239 429z"/>
<path style="fill:#90cbf9; stroke:none;" d="M509 429L509 438C510.256 435.006 510.256 431.994 509 429M461 431L461 439C462.161 436.23 462.161 433.77 461 431M627 431L627 434C627.696 432.446 627.696 432.554 627 431z"/>
<path style="fill:#59b0f6; stroke:none;" d="M406 432L406 437C406.83 434.97 406.83 434.03 406 432M583 432L583 435C583.696 433.446 583.696 433.554 583 432z"/>
<path style="fill:#90cbf9; stroke:none;" d="M189 433L189 438C189.83 435.969 189.83 435.03 189 433z"/>
<path style="fill:#acd8fb; stroke:none;" d="M583 435L583 438C583.696 436.446 583.696 436.554 583 435z"/>
<path style="fill:#66b7f7; stroke:none;" d="M626.333 436.667C626.278 436.722 626.222 437.778 626.667 437.333C626.722 437.278 626.778 436.222 626.333 436.667z"/>
<path style="fill:#90cbf9; stroke:none;" d="M406 437L406 442C406.83 439.97 406.83 439.03 406 437z"/>
<path style="fill:#c8e5fc; stroke:none;" d="M189 438L189 443C189.83 440.97 189.83 440.03 189 438M509 438L509 447C510.256 444.006 510.256 440.994 509 438M461 439L461 448C462.256 445.006 462.256 441.994 461 439z"/>
<path style="fill:#59b0f6; stroke:none;" d="M240 440L240 446C240.951 443.715 240.951 442.285 240 440z"/>
<path style="fill:#90cbf9; stroke:none;" d="M582.333 440.667C582.278 440.722 582.222 441.778 582.667 441.333C582.722 441.278 582.778 440.222 582.333 440.667z"/>
<path style="fill:#9ed1fa; stroke:none;" d="M625 440L626 441L625 440z"/>
<path style="fill:#c8e5fc; stroke:none;" d="M406 442L406 448C406.951 445.715 406.951 444.285 406 442z"/>
<path style="fill:#badefb; stroke:none;" d="M624 443L625 444L624 443z"/>
<path style="fill:#82c4f8; stroke:none;" d="M581 445L582 446L581 445z"/>
<path style="fill:#90cbf9; stroke:none;" d="M240 446L240 452C240.951 449.715 240.951 448.285 240 446z"/>
<path style="fill:#82c4f8; stroke:none;" d="M623 447L624 448L623 447z"/>
<path style="fill:#59b0f6; stroke:none;" d="M188 448L188 453C188.83 450.97 188.83 450.03 188 448z"/>
<path style="fill:#74bdf8; stroke:none;" d="M580 448L581 449L580 448z"/>
<path style="fill:#badefb; stroke:none;" d="M580 449L581 450L580 449z"/>
<path style="fill:#82c4f8; stroke:none;" d="M622 450L623 451L622 450z"/>
<path style="fill:#74bdf8; stroke:none;" d="M579 451L580 452L579 451z"/>
<path style="fill:#c8e5fc; stroke:none;" d="M240 452L240 458C240.951 455.715 240.951 454.285 240 452z"/>
<path style="fill:#badefb; stroke:none;" d="M621 452L622 453L621 452z"/>
<path style="fill:#90cbf9; stroke:none;" d="M188 453L188 458C188.83 455.969 188.83 455.031 188 453z"/>
<path style="fill:#59b0f6; stroke:none;" d="M407 453L407 458C407.83 455.97 407.83 455.03 407 453z"/>
<path style="fill:#66b7f7; stroke:none;" d="M621 453L622 454L621 453z"/>
<path style="fill:#acd8fb; stroke:none;" d="M578 454L579 455L578 454z"/>
<path style="fill:#9ed1fa; stroke:none;" d="M620 455L621 456L620 455z"/>
<path style="fill:#59b0f6; stroke:none;" d="M510 456L510 465C511.256 462.006 511.256 458.994 510 456z"/>
<path style="fill:#acd8fb; stroke:none;" d="M577 456L578 457L577 456z"/>
<path style="fill:#59b0f6; stroke:none;" d="M460 457L460 466C461.256 463.006 461.256 459.994 460 457z"/>
<path style="fill:#badefb; stroke:none;" d="M619 457L620 458L619 457z"/>
<path style="fill:#c8e5fc; stroke:none;" d="M188 458L188 463C188.83 460.97 188.83 460.03 188 458z"/>
<path style="fill:#90cbf9; stroke:none;" d="M407 458L407 463C407.83 460.969 407.83 460.03 407 458z"/>
<path style="fill:#82c4f8; stroke:none;" d="M575 459L576 460L575 459z"/>
<path style="fill:#74bdf8; stroke:none;" d="M618 460L619 461L618 460z"/>
<path style="fill:#9ed1fa; stroke:none;" d="M573 462L574 463L573 462z"/>
<path style="fill:#74bdf8; stroke:none;" d="M617 462L618 463L617 462z"/>
<path style="fill:#59b0f6; stroke:none;" d="M241 463L241 470C242.059 467.466 242.059 465.534 241 463z"/>
<path style="fill:#c8e5fc; stroke:none;" d="M407 463L407 468C407.83 465.97 407.83 465.03 407 463z"/>
<path style="fill:#74bdf8; stroke:none;" d="M572 463L573 464L572 463M571 464L572 465L571 464z"/>
<path style="fill:#90cbf9; stroke:none;" d="M616 464L617 465L616 464M510 465L510 471C510.951 468.715 510.951 467.285 510 465z"/>
<path style="fill:#74bdf8; stroke:none;" d="M570 465L571 466L570 465z"/>
<path style="fill:#90cbf9; stroke:none;" d="M460 466L460 474C461.161 471.23 461.161 468.77 460 466z"/>
<path style="fill:#74bdf8; stroke:none;" d="M569 466L570 467L569 466M615 466L616 467L615 466z"/>
<path style="fill:#90cbf9; stroke:none;" d="M568 467L569 468L568 467z"/>
<path style="fill:#59b0f6; stroke:none;" d="M187 468L187 473C187.83 470.97 187.83 470.031 187 468z"/>
<path style="fill:#66b7f7; stroke:none;" d="M614 468L615 469L614 468M565 469L566 470L565 469z"/>
<path style="fill:#90cbf9; stroke:none;" d="M241 470L241 475C241.83 472.969 241.83 472.03 241 470z"/>
<path style="fill:#82c4f8; stroke:none;" d="M511 471C512.248 471.685 512.548 471.749 514 472C512.752 471.315 512.452 471.251 511 471z"/>
<path style="fill:#acd8fb; stroke:none;" d="M612 471L613 472L612 471M516 472C517.248 472.685 517.548 472.749 519 473C517.752 472.315 517.452 472.251 516 472z"/>
<path style="fill:#4baaf5; stroke:none;" d="M519.667 472.333C519.222 472.778 520.278 472.722 520.333 472.667C520.778 472.222 519.722 472.278 519.667 472.333z"/>
<path style="fill:#74bdf8; stroke:none;" d="M559 472L560 473L559 472z"/>
<path style="fill:#90cbf9; stroke:none;" d="M187 473L187 478C187.83 475.97 187.83 475.03 187 473z"/>
<path style="fill:#59b0f6; stroke:none;" d="M313 473C314.248 473.685 314.548 473.749 316 474C314.752 473.315 314.452 473.251 313 473z"/>
<path style="fill:#90cbf9; stroke:none;" d="M316 473C317.248 473.685 317.548 473.749 319 474C317.752 473.315 317.452 473.251 316 473z"/>
<path style="fill:#c8e5fc; stroke:none;" d="M319 473C320.506 473.683 321.315 473.826 323 474C321.494 473.317 320.685 473.174 319 473z"/>
<path style="fill:#59b0f6; stroke:none;" d="M408 473L408 479C408.951 476.715 408.951 475.285 408 473z"/>
<path style="fill:#c8e5fc; stroke:none;" d="M522 473C523.248 473.685 523.548 473.749 525 474C523.752 473.315 523.452 473.251 522 473z"/>
<path style="fill:#66b7f7; stroke:none;" d="M525 473C526.248 473.685 526.548 473.749 528 474C526.752 473.315 526.452 473.251 525 473z"/>
<path style="fill:#82c4f8; stroke:none;" d="M556 473L557 474L556 473z"/>
<path style="fill:#74bdf8; stroke:none;" d="M611 473L612 474L611 473z"/>
<path style="fill:#59b0f6; stroke:none;" d="M300 474C301.506 474.683 302.315 474.826 304 475C302.494 474.317 301.685 474.174 300 474z"/>
<path style="fill:#90cbf9; stroke:none;" d="M304.667 474.333C304.222 474.778 305.278 474.722 305.333 474.667C305.778 474.222 304.722 474.278 304.667 474.333z"/>
<path style="fill:#c8e5fc; stroke:none;" d="M306 474C307.506 474.683 308.315 474.826 310 475C308.494 474.317 307.685 474.174 306 474M460 474L460 483C461.256 480.006 461.256 476.994 460 474M530 474C531.248 474.685 531.548 474.749 533 475C531.752 474.315 531.451 474.251 530 474z"/>
<path style="fill:#90cbf9; stroke:none;" d="M533 474C534.248 474.685 534.548 474.749 536 475C534.752 474.315 534.452 474.251 533 474z"/>
<path style="fill:#59b0f6; stroke:none;" d="M536 474C537.506 474.683 538.315 474.826 540 475C538.494 474.317 537.685 474.174 536 474M549.667 474.333C549.222 474.778 550.278 474.722 550.333 474.667C550.778 474.222 549.722 474.278 549.667 474.333z"/>
<path style="fill:#9ed1fa; stroke:none;" d="M551 474C552.248 474.685 552.548 474.749 554 475C552.752 474.315 552.451 474.251 551 474z"/>
<path style="fill:#c8e5fc; stroke:none;" d="M241 475L241 480L246 480C244.494 479.317 243.685 479.174 242 479C241.826 477.315 241.683 476.506 241 475z"/>
<path style="fill:#59b0f6; stroke:none;" d="M287 475C288.506 475.683 289.315 475.826 291 476C289.494 475.317 288.685 475.174 287 475z"/>
<path style="fill:#90cbf9; stroke:none;" d="M291 475C292.248 475.685 292.548 475.749 294 476C292.752 475.315 292.452 475.251 291 475z"/>
<path style="fill:#c8e5fc; stroke:none;" d="M294 475C295.248 475.685 295.549 475.749 297 476C295.752 475.315 295.452 475.251 294 475z"/>
<path style="fill:#59b0f6; stroke:none;" d="M274 476C275.506 476.683 276.315 476.826 278 477C276.494 476.317 275.685 476.174 274 476z"/>
<path style="fill:#90cbf9; stroke:none;" d="M278 476C279.248 476.685 279.548 476.749 281 477C279.752 476.315 279.452 476.251 278 476z"/>
<path style="fill:#c8e5fc; stroke:none;" d="M281 476C282.248 476.685 282.548 476.749 284 477C282.752 476.315 282.452 476.251 281 476z"/>
<path style="fill:#90cbf9; stroke:none;" d="M609 476L610 477L609 476z"/>
<path style="fill:#59b0f6; stroke:none;" d="M262 477C263.248 477.685 263.548 477.749 265 478C263.752 477.315 263.452 477.251 262 477z"/>
<path style="fill:#90cbf9; stroke:none;" d="M265 477C266.248 477.685 266.548 477.749 268 478C266.752 477.315 266.452 477.251 265 477z"/>
<path style="fill:#c8e5fc; stroke:none;" d="M268 477C269.248 477.685 269.548 477.749 271 478C269.752 477.315 269.452 477.251 268 477M326 477L326 480C326.696 478.446 326.696 478.554 326 477M187 478L187 483C187.83 480.969 187.83 480.031 187 478z"/>
<path style="fill:#59b0f6; stroke:none;" d="M249 478C250.248 478.685 250.548 478.749 252 479C250.752 478.315 250.452 478.251 249 478z"/>
<path style="fill:#90cbf9; stroke:none;" d="M252 478C253.248 478.685 253.548 478.749 255 479C253.752 478.315 253.452 478.251 252 478z"/>
<path style="fill:#c8e5fc; stroke:none;" d="M255 478C256.506 478.683 257.315 478.826 259 479C257.494 478.317 256.685 478.174 255 478z"/>
<path style="fill:#90cbf9; stroke:none;" d="M408 479L408 483C408.71 481.24 408.71 480.759 408 479z"/>
<path style="fill:#74bdf8; stroke:none;" d="M607 479L608 480L607 479z"/>
<path style="fill:#90cbf9; stroke:none;" d="M326.333 480.667C326.278 480.722 326.222 481.778 326.667 481.333C326.722 481.278 326.778 480.222 326.333 480.667z"/>
<path style="fill:#badefb; stroke:none;" d="M606 480L607 481L606 480z"/>
<path style="fill:#59b0f6; stroke:none;" d="M326 482L326 485C326.696 483.446 326.696 483.554 326 482z"/>
<path style="fill:#c8e5fc; stroke:none;" d="M408 483L408 489C408.951 486.715 408.951 485.285 408 483z"/>
<path style="fill:#74bdf8; stroke:none;" d="M604 483L605 484L604 483z"/>
<path style="fill:#acd8fb; stroke:none;" d="M603 484L604 485L603 484z"/>
<path style="fill:#c8e5fc; stroke:none;" d="M325 487L325 490C325.696 488.446 325.696 488.554 325 487z"/>
<path style="fill:#59b0f6; stroke:none;" d="M186 488L186 494C186.951 491.715 186.951 490.285 186 488z"/>
<path style="fill:#74bdf8; stroke:none;" d="M599 489L600 490L599 489z"/>
<path style="fill:#90cbf9; stroke:none;" d="M325.333 490.667C325.278 490.722 325.222 491.778 325.667 491.333C325.722 491.278 325.778 490.222 325.333 490.667z"/>
<path style="fill:#74bdf8; stroke:none;" d="M598 490L599 491L598 490z"/>
<path style="fill:#90cbf9; stroke:none;" d="M597 491L598 492L597 491z"/>
<path style="fill:#59b0f6; stroke:none;" d="M325 492L325 495C325.696 493.446 325.696 493.554 325 492M459 492L459 501C460.256 498.006 460.256 494.994 459 492z"/>
<path style="fill:#acd8fb; stroke:none;" d="M596 492L597 493L596 492M595 493L596 494L595 493z"/>
<path style="fill:#90cbf9; stroke:none;" d="M186 494L186 498C186.71 496.24 186.71 495.76 186 494z"/>
<path style="fill:#59b0f6; stroke:none;" d="M409 494L409 499C409.83 496.969 409.83 496.03 409 494z"/>
<path style="fill:#acd8fb; stroke:none;" d="M594 494L595 495L594 494z"/>
<path style="fill:#9ed1fa; stroke:none;" d="M593 495L594 496L593 495z"/>
<path style="fill:#74bdf8; stroke:none;" d="M592 496L593 497L592 496z"/>
<path style="fill:#c8e5fc; stroke:none;" d="M324 497L324 500C324.696 498.446 324.696 498.554 324 497z"/>
<path style="fill:#74bdf8; stroke:none;" d="M591 497L592 498L591 497z"/>
<path style="fill:#c8e5fc; stroke:none;" d="M186 498L186 504C186.951 501.715 186.951 500.285 186 498z"/>
<path style="fill:#90cbf9; stroke:none;" d="M409 499L409 504C409.83 501.97 409.83 501.03 409 499M324 500L324 503C324.696 501.446 324.696 501.554 324 500M459 501L459 509C460.161 506.23 460.161 503.77 459 501z"/>
<path style="fill:#acd8fb; stroke:none;" d="M586 501L587 502L586 501z"/>
<path style="fill:#74bdf8; stroke:none;" d="M585 502L586 503L585 502z"/>
<path style="fill:#59b0f6; stroke:none;" d="M324.333 503.667C324.278 503.722 324.222 504.778 324.667 504.333C324.722 504.278 324.778 503.222 324.333 503.667z"/>
<path style="fill:#c8e5fc; stroke:none;" d="M409 504L409 512C410.161 509.23 410.161 506.77 409 504z"/>
<path style="fill:#9ed1fa; stroke:none;" d="M582 504L583 505L582 504M579 506L580 507L579 506z"/>
<path style="fill:#c8e5fc; stroke:none;" d="M323 508L323 511C323.696 509.446 323.696 509.554 323 508z"/>
<path style="fill:#82c4f8; stroke:none;" d="M576 508L577 509L576 508z"/>
<path style="fill:#59b0f6; stroke:none;" d="M185 509L185 514C185.83 511.969 185.83 511.031 185 509z"/>
<path style="fill:#c8e5fc; stroke:none;" d="M459 509L459 518C460.256 515.006 460.256 511.994 459 509z"/>
<path style="fill:#9ed1fa; stroke:none;" d="M574 509L575 510L574 509z"/>
<path style="fill:#acd8fb; stroke:none;" d="M572 510L573 511L572 510z"/>
<path style="fill:#90cbf9; stroke:none;" d="M323.333 511.667C323.278 511.722 323.222 512.778 323.667 512.333C323.722 512.278 323.778 511.222 323.333 511.667z"/>
<path style="fill:#acd8fb; stroke:none;" d="M570 511L571 512L570 511z"/>
<path style="fill:#90cbf9; stroke:none;" d="M409 512L409 517C409.83 514.969 409.83 514.03 409 512z"/>
<path style="fill:#acd8fb; stroke:none;" d="M568 512L569 513L568 512z"/>
<path style="fill:#59b0f6; stroke:none;" d="M323 513L323 516C323.696 514.446 323.696 514.554 323 513z"/>
<path style="fill:#82c4f8; stroke:none;" d="M566 513L567 514L566 513z"/>
<path style="fill:#90cbf9; stroke:none;" d="M185 514L185 519C185.83 516.969 185.83 516.031 185 514z"/>
<path style="fill:#acd8fb; stroke:none;" d="M563 514L564 515L563 514z"/>
<path style="fill:#66b7f7; stroke:none;" d="M564 514L565 515L564 514z"/>
<path style="fill:#badefb; stroke:none;" d="M560 515L561 516L560 515z"/>
<path style="fill:#74bdf8; stroke:none;" d="M561 515L562 516L561 515z"/>
<path style="fill:#badefb; stroke:none;" d="M557 516L558 517L557 516z"/>
<path style="fill:#74bdf8; stroke:none;" d="M558 516L559 517L558 516z"/>
<path style="fill:#59b0f6; stroke:none;" d="M409 517L409 520C409.696 518.446 409.696 518.554 409 517M554.667 517.333C554.222 517.778 555.278 517.722 555.333 517.667C555.778 517.222 554.722 517.278 554.667 517.333z"/>
<path style="fill:#c8e5fc; stroke:none;" d="M322.333 518.667C322.278 518.722 322.222 519.778 322.667 519.333C322.722 519.278 322.778 518.222 322.333 518.667z"/>
<path style="fill:#acd8fb; stroke:none;" d="M548 518C549.248 518.685 549.548 518.749 551 519C549.752 518.315 549.452 518.251 548 518z"/>
<path style="fill:#c8e5fc; stroke:none;" d="M511 519L511 522C511.696 520.446 511.696 520.554 511 519z"/>
<path style="fill:#59b0f6; stroke:none;" d="M512 519C513.248 519.685 513.548 519.749 515 520C513.752 519.315 513.452 519.251 512 519z"/>
<path style="fill:#90cbf9; stroke:none;" d="M515.667 519.333C515.222 519.778 516.278 519.722 516.333 519.667C516.778 519.222 515.722 519.278 515.667 519.333z"/>
<path style="fill:#c8e5fc; stroke:none;" d="M517 519C518.248 519.685 518.548 519.749 520 520C518.752 519.315 518.452 519.251 517 519M540 519C541.248 519.685 541.548 519.749 543 520C541.752 519.315 541.452 519.251 540 519z"/>
<path style="fill:#90cbf9; stroke:none;" d="M543.667 519.333C543.222 519.778 544.278 519.722 544.333 519.667C544.778 519.222 543.722 519.278 543.667 519.333M185 520C189.215 521.769 194.464 521 199 521L227 521L323 521C318.785 519.231 313.536 520 309 520L281 520L185 520z"/>
<path style="fill:#59b0f6; stroke:none;" d="M524 520C527.959 521.661 532.737 521 537 521C533.041 519.339 528.263 520 524 520z"/>
<path style="fill:#c8e5fc; stroke:none;" d="M408 522L408 525C408.696 523.446 408.696 523.554 408 522z"/>
<path style="fill:#74bdf8; stroke:none;" d="M408 525L408 528C408.696 526.446 408.696 526.554 408 525z"/>
<path style="fill:#59b0f6; stroke:none;" d="M458 527L458 536C459.256 533.006 459.256 529.994 458 527M358 530L358 535C358.83 532.969 358.83 532.031 358 530z"/>
<path style="fill:#9ed1fa; stroke:none;" d="M407 530L407 533C407.696 531.446 407.696 531.554 407 530z"/>
<path style="fill:#59b0f6; stroke:none;" d="M512 531L512 541C513.346 537.793 513.346 534.207 512 531z"/>
<path style="fill:#90cbf9; stroke:none;" d="M358.333 535.667C358.278 535.722 358.222 536.778 358.667 536.333C358.722 536.278 358.778 535.222 358.333 535.667z"/>
<path style="fill:#74bdf8; stroke:none;" d="M406.333 536.667C406.278 536.722 406.222 537.778 406.667 537.333C406.722 537.278 406.778 536.222 406.333 536.667z"/>
<path style="fill:#90cbf9; stroke:none;" d="M458 536L458 544C459.161 541.23 459.161 538.77 458 536z"/>
<path style="fill:#c8e5fc; stroke:none;" d="M358 537L358 540C358.696 538.446 358.696 538.554 358 537z"/>
<path style="fill:#5971b6; stroke:none;" d="M225 539L226 540L225 539z"/>
<path style="fill:#9e426a; stroke:none;" d="M226.667 539.333C226.222 539.778 227.278 539.722 227.333 539.667C227.778 539.222 226.722 539.278 226.667 539.333z"/>
<path style="fill:#c8263d; stroke:none;" d="M228.667 539.333C228.222 539.778 229.278 539.722 229.333 539.667C229.778 539.222 228.722 539.278 228.667 539.333z"/>
<path style="fill:#ff0000; stroke:none;" d="M230 539.429C222.463 540.366 215.44 542.379 209 546.548C183.102 563.314 180.503 604.916 203.09 625.699C213.222 635.021 226.556 638.271 240 636.826C289.712 631.485 291.692 551.073 244 540.668C239.503 539.687 234.585 538.859 230 539.429z"/>
<path style="fill:#c8263d; stroke:none;" d="M236 539C237.248 539.685 237.548 539.749 239 540C237.752 539.315 237.452 539.251 236 539z"/>
<path style="fill:#745e98; stroke:none;" d="M239 539C240.248 539.685 240.548 539.749 242 540C240.752 539.315 240.452 539.251 239 539M221 540L222 541L221 540z"/>
<path style="fill:#ac385b; stroke:none;" d="M222 540L223 541L222 540z"/>
<path style="fill:#c8263d; stroke:none;" d="M243 540L244 541L243 540z"/>
<path style="fill:#904b7a; stroke:none;" d="M244 540L245 541L244 540z"/>
<path style="fill:#5971b6; stroke:none;" d="M245 540L246 541L245 540z"/>
<path style="fill:#74bdf8; stroke:none;" d="M405.333 540.667C405.278 540.722 405.222 541.778 405.667 541.333C405.722 541.278 405.778 540.222 405.333 540.667z"/>
<path style="fill:#745e98; stroke:none;" d="M218 541L219 542L218 541z"/>
<path style="fill:#ba2f4c; stroke:none;" d="M219 541L220 542L219 541z"/>
<path style="fill:#ac385b; stroke:none;" d="M247 541L248 542L247 541z"/>
<path style="fill:#5971b6; stroke:none;" d="M248 541L249 542L248 541z"/>
<path style="fill:#66b7f7; stroke:none;" d="M357.333 541.667C357.278 541.722 357.222 542.778 357.667 542.333C357.722 542.278 357.778 541.222 357.333 541.667z"/>
<path style="fill:#90cbf9; stroke:none;" d="M512 541L512 550C513.256 547.006 513.256 543.994 512 541z"/>
<path style="fill:#ac385b; stroke:none;" d="M216 542L217 543L216 542z"/>
<path style="fill:#825489; stroke:none;" d="M250 542L251 543L250 542z"/>
<path style="fill:#5971b6; stroke:none;" d="M213 543L214 544L213 543z"/>
<path style="fill:#ba2f4c; stroke:none;" d="M214 543L215 544L214 543z"/>
<path style="fill:#904b7a; stroke:none;" d="M252 543L253 544L252 543z"/>
<path style="fill:#badefb; stroke:none;" d="M357.333 543.667C357.278 543.722 357.222 544.778 357.667 544.333C357.722 544.278 357.778 543.222 357.333 543.667z"/>
<path style="fill:#ac385b; stroke:none;" d="M212 544L213 545L212 544z"/>
<path style="fill:#904b7a; stroke:none;" d="M254 544L255 545L254 544z"/>
<path style="fill:#9ed1fa; stroke:none;" d="M404 544L405 545L404 544z"/>
<path style="fill:#c8e5fc; stroke:none;" d="M458 544L458 553C459.256 550.006 459.256 546.994 458 544z"/>
<path style="fill:#904b7a; stroke:none;" d="M210 545L211 546L210 545z"/>
<path style="fill:#6667a7; stroke:none;" d="M256 545L257 546L256 545z"/>
<path style="fill:#ba2f4c; stroke:none;" d="M257 546L258 547L257 546z"/>
<path style="fill:#904b7a; stroke:none;" d="M207 547L208 548L207 547z"/>
<path style="fill:#5971b6; stroke:none;" d="M259 547L260 548L259 547z"/>
<path style="fill:#acd8fb; stroke:none;" d="M356.333 547.667C356.278 547.722 356.222 548.778 356.667 548.333C356.722 548.278 356.778 547.222 356.333 547.667M403 547L404 548L403 547z"/>
<path style="fill:#c8263d; stroke:none;" d="M206 548L207 549L206 548z"/>
<path style="fill:#904b7a; stroke:none;" d="M260 548L261 549L260 548z"/>
<path style="fill:#66b7f7; stroke:none;" d="M403 548L404 549L403 548z"/>
<path style="fill:#ac385b; stroke:none;" d="M261 549L262 550L261 549z"/>
<path style="fill:#acd8fb; stroke:none;" d="M402 550L403 551L402 550z"/>
<path style="fill:#c8e5fc; stroke:none;" d="M512 550L512 560C513.346 556.793 513.346 553.207 512 550z"/>
<path style="fill:#745e98; stroke:none;" d="M202 551L203 552L202 551z"/>
<path style="fill:#acd8fb; stroke:none;" d="M355 551L356 552L355 551z"/>
<path style="fill:#66b7f7; stroke:none;" d="M402 551L403 552L402 551z"/>
<path style="fill:#745e98; stroke:none;" d="M201 552L202 553L201 552z"/>
<path style="fill:#5971b6; stroke:none;" d="M200 553L201 554L200 553z"/>
<path style="fill:#74bdf8; stroke:none;" d="M354 553L355 554L354 553z"/>
<path style="fill:#9ed1fa; stroke:none;" d="M401 553L402 554L401 553z"/>
<path style="fill:#ac385b; stroke:none;" d="M267 555L268 556L267 555z"/>
<path style="fill:#90cbf9; stroke:none;" d="M353 555L354 556L353 555z"/>
<path style="fill:#904b7a; stroke:none;" d="M268 556L269 557L268 556z"/>
<path style="fill:#66b7f7; stroke:none;" d="M400 556L401 557L400 556z"/>
<path style="fill:#9e426a; stroke:none;" d="M197 557L198 558L197 557z"/>
<path style="fill:#5971b6; stroke:none;" d="M269 557L270 558L269 557z"/>
<path style="fill:#6667a7; stroke:none;" d="M196 558L197 559L196 558z"/>
<path style="fill:#badefb; stroke:none;" d="M351 558L352 559L351 558z"/>
<path style="fill:#90cbf9; stroke:none;" d="M399 558L400 559L399 558z"/>
<path style="fill:#ba2f4c; stroke:none;" d="M270 559L271 560L270 559z"/>
<path style="fill:#acd8fb; stroke:none;" d="M350 559L351 560L350 559z"/>
<path style="fill:#ba2f4c; stroke:none;" d="M195 560L196 561L195 560z"/>
<path style="fill:#6667a7; stroke:none;" d="M271 560L272 561L271 560z"/>
<path style="fill:#acd8fb; stroke:none;" d="M398 560L399 561L398 560z"/>
<path style="fill:#5971b6; stroke:none;" d="M194 561L195 562L194 561z"/>
<path style="fill:#66b7f7; stroke:none;" d="M312.667 561.333C312.222 561.778 313.278 561.722 313.333 561.667C313.778 561.222 312.722 561.278 312.667 561.333z"/>
<path style="fill:#82c4f8; stroke:none;" d="M347 561L348 562L347 561z"/>
<path style="fill:#904b7a; stroke:none;" d="M272 562L273 563L272 562z"/>
<path style="fill:#90cbf9; stroke:none;" d="M316.667 562.333C316.222 562.778 317.278 562.722 317.333 562.667C317.778 562.222 316.722 562.278 316.667 562.333z"/>
<path style="fill:#74bdf8; stroke:none;" d="M345 562L346 563L345 562z"/>
<path style="fill:#acd8fb; stroke:none;" d="M397 562L398 563L397 562z"/>
<path style="fill:#59b0f6; stroke:none;" d="M457 562L457 571C458.256 568.006 458.256 564.994 457 562z"/>
<path style="fill:#825489; stroke:none;" d="M193 563L194 564L193 563z"/>
<path style="fill:#9ed1fa; stroke:none;" d="M308.333 563.667C308.278 563.722 308.222 564.778 308.667 564.333C308.722 564.278 308.778 563.222 308.333 563.667M321 563C322.248 563.685 322.548 563.749 324 564C322.752 563.315 322.452 563.251 321 563z"/>
<path style="fill:#59b0f6; stroke:none;" d="M324.667 563.333C324.222 563.778 325.278 563.722 325.333 563.667C325.778 563.222 324.722 563.278 324.667 563.333z"/>
<path style="fill:#66b7f7; stroke:none;" d="M342 563L343 564L342 563z"/>
<path style="fill:#acd8fb; stroke:none;" d="M343 563L344 564L343 563z"/>
<path style="fill:#ac385b; stroke:none;" d="M273 564L274 565L273 564z"/>
<path style="fill:#c8e5fc; stroke:none;" d="M328 564C329.506 564.683 330.315 564.826 332 565C330.494 564.317 329.685 564.174 328 564z"/>
<path style="fill:#90cbf9; stroke:none;" d="M332 564C334.052 564.874 335.747 564.953 338 565C335.948 564.126 334.253 564.047 332 564z"/>
<path style="fill:#c8e5fc; stroke:none;" d="M338 564C339.248 564.685 339.548 564.749 341 565C339.752 564.315 339.452 564.251 338 564z"/>
<path style="fill:#acd8fb; stroke:none;" d="M396 564L397 565L396 564z"/>
<path style="fill:#904b7a; stroke:none;" d="M192 565L193 566L192 565z"/>
<path style="fill:#ac385b; stroke:none;" d="M274 566L275 567L274 566z"/>
<path style="fill:#acd8fb; stroke:none;" d="M395 566L396 567L395 566z"/>
<path style="fill:#745e98; stroke:none;" d="M191 567L192 568L191 567z"/>
<path style="fill:#74bdf8; stroke:none;" d="M307 567L308 568L307 567z"/>
<path style="fill:#825489; stroke:none;" d="M275 568L276 569L275 568z"/>
<path style="fill:#90cbf9; stroke:none;" d="M394 568L395 569L394 568z"/>
<path style="fill:#59b0f6; stroke:none;" d="M513 569L513 579C514.346 575.793 514.346 572.207 513 569z"/>
<path style="fill:#9e426a; stroke:none;" d="M190 570L191 571L190 570z"/>
<path style="fill:#66b7f7; stroke:none;" d="M393 570L394 571L393 570z"/>
<path style="fill:#9e426a; stroke:none;" d="M276 571L277 572L276 571z"/>
<path style="fill:#c8e5fc; stroke:none;" d="M306.333 571.667C306.278 571.722 306.222 572.778 306.667 572.333C306.722 572.278 306.778 571.222 306.333 571.667z"/>
<path style="fill:#90cbf9; stroke:none;" d="M457 571L457 580C458.256 577.006 458.256 573.994 457 571z"/>
<path style="fill:#9e426a; stroke:none;" d="M189 573L190 574L189 573z"/>
<path style="fill:#90cbf9; stroke:none;" d="M391 573L392 574L391 573z"/>
<path style="fill:#904b7a; stroke:none;" d="M277 574L278 575L277 574z"/>
<path style="fill:#9ed1fa; stroke:none;" d="M305.333 574.667C305.278 574.722 305.222 575.778 305.667 575.333C305.722 575.278 305.778 574.222 305.333 574.667z"/>
<path style="fill:#c8263d; stroke:none;" d="M277 575L278 576L277 575z"/>
<path style="fill:#904b7a; stroke:none;" d="M188.333 576.667C188.278 576.722 188.222 577.778 188.667 577.333C188.722 577.278 188.778 576.222 188.333 576.667z"/>
<path style="fill:#9ed1fa; stroke:none;" d="M389 576L390 577L389 576z"/>
<path style="fill:#745e98; stroke:none;" d="M278.333 577.667C278.278 577.722 278.222 578.778 278.667 578.333C278.722 578.278 278.778 577.222 278.333 577.667z"/>
<path style="fill:#acd8fb; stroke:none;" d="M304.333 578.667C304.278 578.722 304.222 579.778 304.667 579.333C304.722 579.278 304.778 578.222 304.333 578.667z"/>
<path style="fill:#c8263d; stroke:none;" d="M278.333 579.667C278.278 579.722 278.222 580.778 278.667 580.333C278.722 580.278 278.778 579.222 278.333 579.667z"/>
<path style="fill:#82c4f8; stroke:none;" d="M387 579L388 580L387 579z"/>
<path style="fill:#90cbf9; stroke:none;" d="M513 579L513 588C514.256 585.006 514.256 581.994 513 579z"/>
<path style="fill:#c8e5fc; stroke:none;" d="M457 580L457 589C458.256 586.006 458.256 582.994 457 580z"/>
<path style="fill:#5971b6; stroke:none;" d="M187.333 581.667C187.278 581.722 187.222 582.778 187.667 582.333C187.722 582.278 187.778 581.222 187.333 581.667z"/>
<path style="fill:#82c4f8; stroke:none;" d="M303 582L304 583L303 582z"/>
<path style="fill:#904b7a; stroke:none;" d="M187 583L187 588C187.83 585.969 187.83 585.031 187 583z"/>
<path style="fill:#82c4f8; stroke:none;" d="M384 583L385 584L384 583z"/>
<path style="fill:#5971b6; stroke:none;" d="M279 584L279 593C280.256 590.006 280.256 586.994 279 584z"/>
<path style="fill:#acd8fb; stroke:none;" d="M383 584L384 585L383 584z"/>
<path style="fill:#9ed1fa; stroke:none;" d="M302.333 585.667C302.278 585.722 302.222 586.778 302.667 586.333C302.722 586.278 302.778 585.222 302.333 585.667z"/>
<path style="fill:#c8263d; stroke:none;" d="M187 588L188 589L187 588z"/>
<path style="fill:#c8e5fc; stroke:none;" d="M513 588C512.997 591.786 512.879 595.306 512 599C514.923 596.446 514.422 591.388 513 588z"/>
<path style="fill:#904b7a; stroke:none;" d="M187 589L187 594C187.83 591.969 187.83 591.031 187 589z"/>
<path style="fill:#acd8fb; stroke:none;" d="M301.333 589.667C301.278 589.722 301.222 590.778 301.667 590.333C301.722 590.278 301.778 589.222 301.333 589.667z"/>
<path style="fill:#74bdf8; stroke:none;" d="M379 589L380 590L379 589M378 590L379 591L378 590M377 591L378 592L377 591M376 592L377 593L376 592z"/>
<path style="fill:#82c4f8; stroke:none;" d="M300 593L301 594L300 593z"/>
<path style="fill:#74bdf8; stroke:none;" d="M375 593L376 594L375 593z"/>
<path style="fill:#4b7ac5; stroke:none;" d="M187.333 594.667C187.278 594.722 187.222 595.778 187.667 595.333C187.722 595.278 187.778 594.222 187.333 594.667z"/>
<path style="fill:#74bdf8; stroke:none;" d="M374 594L375 595L374 594z"/>
<path style="fill:#ba2f4c; stroke:none;" d="M278.333 595.667C278.278 595.722 278.222 596.778 278.667 596.333C278.722 596.278 278.778 595.222 278.333 595.667z"/>
<path style="fill:#9ed1fa; stroke:none;" d="M299.333 596.667C299.278 596.722 299.222 597.778 299.667 597.333C299.722 597.278 299.778 596.222 299.333 596.667z"/>
<path style="fill:#ba2f4c; stroke:none;" d="M188 597L188 600C188.696 598.446 188.696 598.554 188 597z"/>
<path style="fill:#6667a7; stroke:none;" d="M278.333 597.667C278.278 597.722 278.222 598.778 278.667 598.333C278.722 598.278 278.778 597.222 278.333 597.667z"/>
<path style="fill:#59b0f6; stroke:none;" d="M456 597L456 606C457.256 603.006 457.256 599.994 456 597z"/>
<path style="fill:#acd8fb; stroke:none;" d="M369 598L370 599L369 598z"/>
<path style="fill:#74bdf8; stroke:none;" d="M368 599L369 600L368 599z"/>
<path style="fill:#acd8fb; stroke:none;" d="M507.667 599.333C507.222 599.778 508.278 599.722 508.333 599.667C508.778 599.222 507.722 599.278 507.667 599.333z"/>
<path style="fill:#59b0f6; stroke:none;" d="M509.667 599.333C509.222 599.778 510.278 599.722 510.333 599.667C510.778 599.222 509.722 599.278 509.667 599.333z"/>
<path style="fill:#5971b6; stroke:none;" d="M188 600L189 601L188 600z"/>
<path style="fill:#acd8fb; stroke:none;" d="M298.333 600.667C298.278 600.722 298.222 601.778 298.667 601.333C298.722 601.278 298.778 600.222 298.333 600.667z"/>
<path style="fill:#74bdf8; stroke:none;" d="M503 600C504.248 600.685 504.548 600.749 506 601C504.752 600.315 504.452 600.251 503 600z"/>
<path style="fill:#ba2f4c; stroke:none;" d="M277 601L278 602L277 601z"/>
<path style="fill:#90cbf9; stroke:none;" d="M365 601L366 602L365 601z"/>
<path style="fill:#acd8fb; stroke:none;" d="M496 601C497.248 601.685 497.549 601.749 499 602C497.752 601.315 497.452 601.251 496 601z"/>
<path style="fill:#ba2f4c; stroke:none;" d="M189 602L190 603L189 602z"/>
<path style="fill:#745e98; stroke:none;" d="M277 602L278 603L277 602z"/>
<path style="fill:#74bdf8; stroke:none;" d="M492 602C493.248 602.685 493.548 602.749 495 603C493.752 602.315 493.452 602.251 492 602z"/>
<path style="fill:#825489; stroke:none;" d="M189 603L190 604L189 603z"/>
<path style="fill:#82c4f8; stroke:none;" d="M362 603L363 604L362 603z"/>
<path style="fill:#acd8fb; stroke:none;" d="M485 603C486.248 603.685 486.549 603.749 488 604C486.752 603.315 486.452 603.251 485 603z"/>
<path style="fill:#badefb; stroke:none;" d="M297.333 604.667C297.278 604.722 297.222 605.778 297.667 605.333C297.722 605.278 297.778 604.222 297.333 604.667z"/>
<path style="fill:#acd8fb; stroke:none;" d="M360 604L361 605L360 604z"/>
<path style="fill:#74bdf8; stroke:none;" d="M481 604C482.248 604.685 482.548 604.749 484 605C482.752 604.315 482.452 604.251 481 604z"/>
<path style="fill:#825489; stroke:none;" d="M276 605L277 606L276 605z"/>
<path style="fill:#acd8fb; stroke:none;" d="M358 605L359 606L358 605M474 605C475.248 605.685 475.548 605.749 477 606C475.752 605.315 475.452 605.251 474 605z"/>
<path style="fill:#825489; stroke:none;" d="M190 606L191 607L190 606z"/>
<path style="fill:#acd8fb; stroke:none;" d="M356 606L357 607L356 606z"/>
<path style="fill:#90cbf9; stroke:none;" d="M456 606L456 609C456.696 607.446 456.696 607.554 456 606z"/>
<path style="fill:#9ed1fa; stroke:none;" d="M469.667 606.333C469.222 606.778 470.278 606.722 470.333 606.667C470.778 606.222 469.722 606.278 469.667 606.333z"/>
<path style="fill:#59b0f6; stroke:none;" d="M471.667 606.333C471.222 606.778 472.278 606.722 472.333 606.667C472.778 606.222 471.722 606.278 471.667 606.333z"/>
<path style="fill:#ba2f4c; stroke:none;" d="M275 607L276 608L275 607z"/>
<path style="fill:#59b0f6; stroke:none;" d="M296.333 607.667C296.278 607.722 296.222 608.778 296.667 608.333C296.722 608.278 296.778 607.222 296.333 607.667z"/>
<path style="fill:#90cbf9; stroke:none;" d="M354 607L355 608L354 607z"/>
<path style="fill:#badefb; stroke:none;" d="M463 607C464.248 607.685 464.549 607.749 466 608C464.752 607.315 464.452 607.251 463 607z"/>
<path style="fill:#ac385b; stroke:none;" d="M191 608L192 609L191 608z"/>
<path style="fill:#6667a7; stroke:none;" d="M275 608L276 609L275 608z"/>
<path style="fill:#badefb; stroke:none;" d="M351 608L352 609L351 608z"/>
<path style="fill:#74bdf8; stroke:none;" d="M352 608L353 609L352 608z"/>
<path style="fill:#9ed1fa; stroke:none;" d="M458.667 608.333C458.222 608.778 459.278 608.722 459.333 608.667C459.778 608.222 458.722 608.278 458.667 608.333z"/>
<path style="fill:#59b0f6; stroke:none;" d="M460.667 608.333C460.222 608.778 461.278 608.722 461.333 608.667C461.778 608.222 460.722 608.278 460.667 608.333z"/>
<path style="fill:#5971b6; stroke:none;" d="M191 609L192 610L191 609z"/>
<path style="fill:#90cbf9; stroke:none;" d="M300.667 609.333C300.222 609.778 301.278 609.722 301.333 609.667C301.778 609.222 300.722 609.278 300.667 609.333z"/>
<path style="fill:#d5ebfd; stroke:none;" d="M302.667 609.333C302.222 609.778 303.278 609.722 303.333 609.667C303.778 609.222 302.722 609.278 302.667 609.333z"/>
<path style="fill:#badefb; stroke:none;" d="M348 609L349 610L348 609z"/>
<path style="fill:#74bdf8; stroke:none;" d="M349 609L350 610L349 609z"/>
<path style="fill:#c8263d; stroke:none;" d="M192 610L193 611L192 610z"/>
<path style="fill:#825489; stroke:none;" d="M274 610L275 611L274 610z"/>
<path style="fill:#66b7f7; stroke:none;" d="M305.667 610.333C305.222 610.778 306.278 610.722 306.333 610.667C306.778 610.222 305.722 610.278 305.667 610.333z"/>
<path style="fill:#acd8fb; stroke:none;" d="M307 610C308.248 610.685 308.548 610.749 310 611C308.752 610.315 308.452 610.251 307 610z"/>
<path style="fill:#59b0f6; stroke:none;" d="M345.667 610.333C345.222 610.778 346.278 610.722 346.333 610.667C346.778 610.222 345.722 610.278 345.667 610.333z"/>
<path style="fill:#5971b6; stroke:none;" d="M192 611L193 612L192 611z"/>
<path style="fill:#59b0f6; stroke:none;" d="M312 611C313.248 611.685 313.548 611.749 315 612C313.752 611.315 313.452 611.251 312 611z"/>
<path style="fill:#90cbf9; stroke:none;" d="M315.667 611.333C315.222 611.778 316.278 611.722 316.333 611.667C316.778 611.222 315.722 611.278 315.667 611.333z"/>
<path style="fill:#c8e5fc; stroke:none;" d="M317 611C318.248 611.685 318.549 611.749 320 612C318.752 611.315 318.452 611.251 317 611z"/>
<path style="fill:#badefb; stroke:none;" d="M338 611C339.248 611.685 339.549 611.749 341 612C339.752 611.315 339.452 611.251 338 611z"/>
<path style="fill:#4baaf5; stroke:none;" d="M341.667 611.333C341.222 611.778 342.278 611.722 342.333 611.667C342.778 611.222 341.722 611.278 341.667 611.333z"/>
<path style="fill:#c8263d; stroke:none;" d="M193 612L194 613L193 612z"/>
<path style="fill:#904b7a; stroke:none;" d="M273 612L274 613L273 612z"/>
<path style="fill:#59b0f6; stroke:none;" d="M325 612C328.163 613.327 331.586 613 335 613C331.837 611.673 328.414 612 325 612z"/>
<path style="fill:#5971b6; stroke:none;" d="M193 613L194 614L193 613z"/>
<path style="fill:#ba2f4c; stroke:none;" d="M194 614L195 615L194 614z"/>
<path style="fill:#6667a7; stroke:none;" d="M272 614L273 615L272 614z"/>
<path style="fill:#c8263d; stroke:none;" d="M271 615L272 616L271 615z"/>
<path style="fill:#825489; stroke:none;" d="M195 616L196 617L195 616z"/>
<path style="fill:#c8263d; stroke:none;" d="M196 617L197 618L196 617z"/>
<path style="fill:#825489; stroke:none;" d="M270 617L271 618L270 617z"/>
<path style="fill:#c8263d; stroke:none;" d="M269 618L270 619L269 618z"/>
<path style="fill:#6667a7; stroke:none;" d="M197 619L198 620L197 619z"/>
<path style="fill:#9e426a; stroke:none;" d="M198 620L199 621L198 620z"/>
<path style="fill:#c8263d; stroke:none;" d="M199 621L200 622L199 621z"/>
<path style="fill:#745e98; stroke:none;" d="M267 621L268 622L267 621z"/>
<path style="fill:#9e426a; stroke:none;" d="M266 622L267 623L266 622z"/>
<path style="fill:#ac385b; stroke:none;" d="M265 623L266 624L265 623M264 624L265 625L264 624M263 625L264 626L263 625z"/>
<path style="fill:#904b7a; stroke:none;" d="M262 626L263 627L262 626z"/>
<path style="fill:#ac385b; stroke:none;" d="M205 627L206 628L205 627z"/>
<path style="fill:#745e98; stroke:none;" d="M261 627L262 628L261 627z"/>
<path style="fill:#825489; stroke:none;" d="M206 628L207 629L206 628z"/>
<path style="fill:#ba2f4c; stroke:none;" d="M258 629L259 630L258 629z"/>
<path style="fill:#9e426a; stroke:none;" d="M209 630L210 631L209 630z"/>
<path style="fill:#6667a7; stroke:none;" d="M257 630L258 631L257 630z"/>
<path style="fill:#c8263d; stroke:none;" d="M211 631L212 632L211 631z"/>
<path style="fill:#9e426a; stroke:none;" d="M255 631L256 632L255 631z"/>
<path style="fill:#745e98; stroke:none;" d="M212 632L213 633L212 632z"/>
<path style="fill:#ba2f4c; stroke:none;" d="M253 632L254 633L253 632z"/>
<path style="fill:#745e98; stroke:none;" d="M214 633L215 634L214 633z"/>
<path style="fill:#ac385b; stroke:none;" d="M251 633L252 634L251 633z"/>
<path style="fill:#5971b6; stroke:none;" d="M216 634L217 635L216 634z"/>
<path style="fill:#ac385b; stroke:none;" d="M217 634L218 635L217 634z"/>
<path style="fill:#9e426a; stroke:none;" d="M249 634L250 635L249 634z"/>
<path style="fill:#745e98; stroke:none;" d="M219 635L220 636L219 635z"/>
<path style="fill:#ba2f4c; stroke:none;" d="M220 635L221 636L220 635z"/>
<path style="fill:#ac385b; stroke:none;" d="M246 635L247 636L246 635z"/>
<path style="fill:#6667a7; stroke:none;" d="M247 635L248 636L247 635z"/>
<path style="fill:#5971b6; stroke:none;" d="M222 636L223 637L222 636z"/>
<path style="fill:#904b7a; stroke:none;" d="M223 636L224 637L223 636z"/>
<path style="fill:#ba2f4c; stroke:none;" d="M242 636L243 637L242 636z"/>
<path style="fill:#825489; stroke:none;" d="M243 636L244 637L243 636z"/>
<path style="fill:#745e98; stroke:none;" d="M227.667 637.333C227.222 637.778 228.278 637.722 228.333 637.667C228.778 637.222 227.722 637.278 227.667 637.333z"/>
<path style="fill:#904b7a; stroke:none;" d="M229 637C231.89 638.213 234.874 637.998 238 638C235.11 636.787 232.126 637.002 229 637z"/>
<path style="fill:#5971b6; stroke:none;" d="M238.667 637.333C238.222 637.778 239.278 637.722 239.333 637.667C239.778 637.222 238.722 637.278 238.667 637.333z"/>
</svg>
